M48
; DRILL file {KiCad 8.0.3} date 2024-07-23T15:58:39+0200
; FORMAT={-:-/ absolute / inch / decimal}
; #@! TF.CreationDate,2024-07-23T15:58:39+02:00
; #@! TF.GenerationSoftware,Kicad,Pcbnew,8.0.3
; #@! TF.FileFunction,Plated,1,2,PTH
FMAT,2
INCH
; #@! TA.AperFunction,Plated,PTH,ViaDrill
T1C0.0118
; #@! TA.AperFunction,Plated,PTH,ComponentDrill
T2C0.0295
; #@! TA.AperFunction,Plated,PTH,ComponentDrill
T3C0.0300
; #@! TA.AperFunction,Plated,PTH,ComponentDrill
T4C0.0394
; #@! TA.AperFunction,Plated,PTH,ComponentDrill
T5C0.0472
%
G90
G05
T1
X4.259Y-2.194
X4.522Y-2.2417
X4.547Y-2.096
X4.773Y-2.204
X4.817Y-2.412
X5.0522Y-2.5167
X5.0902Y-2.5167
X5.124Y-2.5167
X5.1503Y-2.4994
X5.1837Y-2.466
X5.1841Y-2.6438
X5.189Y-2.389
X5.222Y-2.158
X5.2242Y-2.6171
X5.2835Y-2.6764
X5.3445Y-2.2178
X5.3668Y-2.1956
X5.3925Y-2.4409
X5.432Y-2.4646
X5.469Y-2.4646
X5.4836Y-2.2124
X5.5111Y-2.2277
X5.519Y-2.312
X5.524Y-2.5646
X5.544Y-2.13
X5.714Y-2.33
X5.72Y-2.5
X5.749Y-2.823
X5.7911Y-2.7508
X5.8199Y-2.7829
X5.826Y-2.414
X5.832Y-2.115
X5.8638Y-2.7528
X5.912Y-2.842
X6.0483Y-2.0213
X6.065Y-2.701
X6.0798Y-2.0508
X6.1512Y-3.3516
X6.2329Y-2.2371
X6.285Y-2.446
X6.403Y-2.843
X6.417Y-2.1
X6.4273Y-2.3983
X6.5Y-2.325
T2
X4.0709Y-2.6339
X4.1496Y-2.6339
X4.2283Y-2.6339
X4.3071Y-2.6339
X4.3858Y-2.6339
X4.6142Y-2.1083
X4.6929Y-2.1083
X4.7717Y-2.1083
X4.9665Y-2.1083
X5.0453Y-2.1083
X5.124Y-2.1083
X5.3189Y-2.1083
X5.3976Y-2.1083
X6.1811Y-3.8583
X6.1811Y-3.937
X6.1811Y-4.0157
X6.1811Y-4.0945
T3
X5.5764Y-2.2831
X5.5764Y-2.3831
X5.5764Y-2.4831
X5.5764Y-2.5831
X5.5764Y-2.6831
X5.8764Y-2.2831
X5.8764Y-2.3831
X5.8764Y-2.4831
X5.8764Y-2.5831
X5.8764Y-2.6831
T4
X4.0449Y-2.3843
X4.0449Y-2.4843
X4.1449Y-2.3843
X4.1449Y-2.4843
X4.2449Y-2.3843
X4.2449Y-2.4843
X4.3449Y-2.0402
X4.3449Y-2.1402
X4.3449Y-2.2402
X4.3449Y-2.3843
X4.3449Y-2.4843
X4.4449Y-2.0402
X4.4449Y-2.1402
X4.4449Y-2.2402
X4.4449Y-2.3843
X4.4449Y-2.4843
X6.0146Y-2.1522
X6.0146Y-2.2522
X6.0146Y-2.3522
X6.0146Y-2.4522
X6.0146Y-2.5522
X6.0146Y-2.6522
X6.0146Y-2.7522
X6.0146Y-2.8522
X6.0146Y-2.9522
X6.0146Y-3.0522
X6.0146Y-3.1522
X6.0146Y-3.2522
X6.0146Y-3.3522
X6.0146Y-3.4522
X6.0146Y-3.5522
X6.6146Y-2.1522
X6.6146Y-2.2522
X6.6146Y-2.3522
X6.6146Y-2.4522
X6.6146Y-2.5522
X6.6146Y-2.6522
X6.6146Y-2.7522
X6.6146Y-2.8522
X6.6146Y-2.9522
X6.6146Y-3.0522
X6.6146Y-3.1522
X6.6146Y-3.2522
X6.6146Y-3.3522
X6.6146Y-3.4522
X6.6146Y-3.5522
T5
X6.109Y-4.52
X6.3059Y-4.52
X6.5027Y-4.52
M30
