%TF.GenerationSoftware,KiCad,Pcbnew,8.0.3*%
%TF.CreationDate,2024-07-23T15:57:45+02:00*%
%TF.ProjectId,Ruehrplatte,52756568-7270-46c6-9174-74652e6b6963,rev?*%
%TF.SameCoordinates,Original*%
%TF.FileFunction,Soldermask,Top*%
%TF.FilePolarity,Negative*%
%FSLAX46Y46*%
G04 Gerber Fmt 4.6, Leading zero omitted, Abs format (unit mm)*
G04 Created by KiCad (PCBNEW 8.0.3) date 2024-07-23 15:57:45*
%MOMM*%
%LPD*%
G01*
G04 APERTURE LIST*
G04 Aperture macros list*
%AMRoundRect*
0 Rectangle with rounded corners*
0 $1 Rounding radius*
0 $2 $3 $4 $5 $6 $7 $8 $9 X,Y pos of 4 corners*
0 Add a 4 corners polygon primitive as box body*
4,1,4,$2,$3,$4,$5,$6,$7,$8,$9,$2,$3,0*
0 Add four circle primitives for the rounded corners*
1,1,$1+$1,$2,$3*
1,1,$1+$1,$4,$5*
1,1,$1+$1,$6,$7*
1,1,$1+$1,$8,$9*
0 Add four rect primitives between the rounded corners*
20,1,$1+$1,$2,$3,$4,$5,0*
20,1,$1+$1,$4,$5,$6,$7,0*
20,1,$1+$1,$6,$7,$8,$9,0*
20,1,$1+$1,$8,$9,$2,$3,0*%
G04 Aperture macros list end*
%ADD10R,3.000000X3.000000*%
%ADD11C,3.000000*%
%ADD12RoundRect,0.250000X-0.350000X-0.625000X0.350000X-0.625000X0.350000X0.625000X-0.350000X0.625000X0*%
%ADD13O,1.200000X1.750000*%
%ADD14R,1.700000X1.700000*%
%ADD15O,1.700000X1.700000*%
%ADD16R,1.524000X1.524000*%
%ADD17C,1.524000*%
%ADD18RoundRect,0.250000X-0.625000X0.350000X-0.625000X-0.350000X0.625000X-0.350000X0.625000X0.350000X0*%
%ADD19O,1.750000X1.200000*%
%ADD20R,1.600000X1.600000*%
%ADD21O,1.600000X1.600000*%
G04 APERTURE END LIST*
D10*
%TO.C,RV1*%
X155168600Y-114808000D03*
D11*
X160168600Y-114808000D03*
X165168600Y-114808000D03*
%TD*%
D12*
%TO.C,J2*%
X103400000Y-66900000D03*
D13*
X105400000Y-66900000D03*
X107400000Y-66900000D03*
X109400000Y-66900000D03*
X111400000Y-66900000D03*
%TD*%
D12*
%TO.C,J4*%
X117200000Y-53550000D03*
D13*
X119200000Y-53550000D03*
X121200000Y-53550000D03*
%TD*%
D14*
%TO.C,J7*%
X110360000Y-51820000D03*
D15*
X112900000Y-51820000D03*
X110360000Y-54360000D03*
X112900000Y-54360000D03*
X110360000Y-56900000D03*
X112900000Y-56900000D03*
%TD*%
D16*
%TO.C,U1*%
X149260000Y-68150000D03*
D17*
X149260000Y-65610000D03*
X149260000Y-63070000D03*
X149260000Y-60530000D03*
X149260000Y-57990000D03*
D16*
X141640000Y-68150000D03*
D17*
X141640000Y-65610000D03*
X141640000Y-63070000D03*
X141640000Y-60530000D03*
X141640000Y-57990000D03*
%TD*%
D14*
%TO.C,J6*%
X102740000Y-63100000D03*
D15*
X102740000Y-60560000D03*
X105280000Y-63100000D03*
X105280000Y-60560000D03*
X107820000Y-63100000D03*
X107820000Y-60560000D03*
X110360000Y-63100000D03*
X110360000Y-60560000D03*
X112900000Y-63100000D03*
X112900000Y-60560000D03*
%TD*%
D12*
%TO.C,J1*%
X135100000Y-53550000D03*
D13*
X137100000Y-53550000D03*
%TD*%
D18*
%TO.C,J3*%
X157000000Y-98000000D03*
D19*
X157000000Y-100000000D03*
X157000000Y-102000000D03*
X157000000Y-104000000D03*
%TD*%
D12*
%TO.C,J5*%
X126150000Y-53550000D03*
D13*
X128150000Y-53550000D03*
X130150000Y-53550000D03*
%TD*%
D20*
%TO.C,A1*%
X168012000Y-90227000D03*
D21*
X168012000Y-87687000D03*
X168012000Y-85147000D03*
X168012000Y-82607000D03*
X168012000Y-80067000D03*
X168012000Y-77527000D03*
X168012000Y-74987000D03*
X168012000Y-72447000D03*
X168012000Y-69907000D03*
X168012000Y-67367000D03*
X168012000Y-64827000D03*
X168012000Y-62287000D03*
X168012000Y-59747000D03*
X168012000Y-57207000D03*
X168012000Y-54667000D03*
X152772000Y-54667000D03*
X152772000Y-57207000D03*
X152772000Y-59747000D03*
X152772000Y-62287000D03*
X152772000Y-64827000D03*
X152772000Y-67367000D03*
X152772000Y-69907000D03*
X152772000Y-72447000D03*
X152772000Y-74987000D03*
X152772000Y-77527000D03*
X152772000Y-80067000D03*
X152772000Y-82607000D03*
X152772000Y-85147000D03*
X152772000Y-87687000D03*
X152772000Y-90227000D03*
%TD*%
M02*
