%TF.GenerationSoftware,KiCad,Pcbnew,8.0.3*%
%TF.CreationDate,2024-07-23T15:57:45+02:00*%
%TF.ProjectId,Ruehrplatte,52756568-7270-46c6-9174-74652e6b6963,rev?*%
%TF.SameCoordinates,Original*%
%TF.FileFunction,Legend,Top*%
%TF.FilePolarity,Positive*%
%FSLAX46Y46*%
G04 Gerber Fmt 4.6, Leading zero omitted, Abs format (unit mm)*
G04 Created by KiCad (PCBNEW 8.0.3) date 2024-07-23 15:57:45*
%MOMM*%
%LPD*%
G01*
G04 APERTURE LIST*
%ADD10C,0.100000*%
%ADD11C,0.150000*%
%ADD12C,0.120000*%
G04 APERTURE END LIST*
D10*
X124081265Y-66109056D02*
X124224122Y-66156675D01*
X124224122Y-66156675D02*
X124462217Y-66156675D01*
X124462217Y-66156675D02*
X124557455Y-66109056D01*
X124557455Y-66109056D02*
X124605074Y-66061436D01*
X124605074Y-66061436D02*
X124652693Y-65966198D01*
X124652693Y-65966198D02*
X124652693Y-65870960D01*
X124652693Y-65870960D02*
X124605074Y-65775722D01*
X124605074Y-65775722D02*
X124557455Y-65728103D01*
X124557455Y-65728103D02*
X124462217Y-65680484D01*
X124462217Y-65680484D02*
X124271741Y-65632865D01*
X124271741Y-65632865D02*
X124176503Y-65585246D01*
X124176503Y-65585246D02*
X124128884Y-65537627D01*
X124128884Y-65537627D02*
X124081265Y-65442389D01*
X124081265Y-65442389D02*
X124081265Y-65347151D01*
X124081265Y-65347151D02*
X124128884Y-65251913D01*
X124128884Y-65251913D02*
X124176503Y-65204294D01*
X124176503Y-65204294D02*
X124271741Y-65156675D01*
X124271741Y-65156675D02*
X124509836Y-65156675D01*
X124509836Y-65156675D02*
X124652693Y-65204294D01*
X124938408Y-65490008D02*
X125319360Y-65490008D01*
X125081265Y-65156675D02*
X125081265Y-66013817D01*
X125081265Y-66013817D02*
X125128884Y-66109056D01*
X125128884Y-66109056D02*
X125224122Y-66156675D01*
X125224122Y-66156675D02*
X125319360Y-66156675D01*
X125652694Y-66156675D02*
X125652694Y-65490008D01*
X125652694Y-65156675D02*
X125605075Y-65204294D01*
X125605075Y-65204294D02*
X125652694Y-65251913D01*
X125652694Y-65251913D02*
X125700313Y-65204294D01*
X125700313Y-65204294D02*
X125652694Y-65156675D01*
X125652694Y-65156675D02*
X125652694Y-65251913D01*
X126128884Y-66156675D02*
X126128884Y-65490008D01*
X126128884Y-65680484D02*
X126176503Y-65585246D01*
X126176503Y-65585246D02*
X126224122Y-65537627D01*
X126224122Y-65537627D02*
X126319360Y-65490008D01*
X126319360Y-65490008D02*
X126414598Y-65490008D01*
X126747932Y-66156675D02*
X126747932Y-65490008D01*
X126747932Y-65680484D02*
X126795551Y-65585246D01*
X126795551Y-65585246D02*
X126843170Y-65537627D01*
X126843170Y-65537627D02*
X126938408Y-65490008D01*
X126938408Y-65490008D02*
X127033646Y-65490008D01*
X127747932Y-66109056D02*
X127652694Y-66156675D01*
X127652694Y-66156675D02*
X127462218Y-66156675D01*
X127462218Y-66156675D02*
X127366980Y-66109056D01*
X127366980Y-66109056D02*
X127319361Y-66013817D01*
X127319361Y-66013817D02*
X127319361Y-65632865D01*
X127319361Y-65632865D02*
X127366980Y-65537627D01*
X127366980Y-65537627D02*
X127462218Y-65490008D01*
X127462218Y-65490008D02*
X127652694Y-65490008D01*
X127652694Y-65490008D02*
X127747932Y-65537627D01*
X127747932Y-65537627D02*
X127795551Y-65632865D01*
X127795551Y-65632865D02*
X127795551Y-65728103D01*
X127795551Y-65728103D02*
X127319361Y-65823341D01*
X128224123Y-66156675D02*
X128224123Y-65490008D01*
X128224123Y-65680484D02*
X128271742Y-65585246D01*
X128271742Y-65585246D02*
X128319361Y-65537627D01*
X128319361Y-65537627D02*
X128414599Y-65490008D01*
X128414599Y-65490008D02*
X128509837Y-65490008D01*
X129462219Y-65156675D02*
X129795552Y-66156675D01*
X129795552Y-66156675D02*
X130128885Y-65156675D01*
X130652695Y-65156675D02*
X130747933Y-65156675D01*
X130747933Y-65156675D02*
X130843171Y-65204294D01*
X130843171Y-65204294D02*
X130890790Y-65251913D01*
X130890790Y-65251913D02*
X130938409Y-65347151D01*
X130938409Y-65347151D02*
X130986028Y-65537627D01*
X130986028Y-65537627D02*
X130986028Y-65775722D01*
X130986028Y-65775722D02*
X130938409Y-65966198D01*
X130938409Y-65966198D02*
X130890790Y-66061436D01*
X130890790Y-66061436D02*
X130843171Y-66109056D01*
X130843171Y-66109056D02*
X130747933Y-66156675D01*
X130747933Y-66156675D02*
X130652695Y-66156675D01*
X130652695Y-66156675D02*
X130557457Y-66109056D01*
X130557457Y-66109056D02*
X130509838Y-66061436D01*
X130509838Y-66061436D02*
X130462219Y-65966198D01*
X130462219Y-65966198D02*
X130414600Y-65775722D01*
X130414600Y-65775722D02*
X130414600Y-65537627D01*
X130414600Y-65537627D02*
X130462219Y-65347151D01*
X130462219Y-65347151D02*
X130509838Y-65251913D01*
X130509838Y-65251913D02*
X130557457Y-65204294D01*
X130557457Y-65204294D02*
X130652695Y-65156675D01*
X131414600Y-66061436D02*
X131462219Y-66109056D01*
X131462219Y-66109056D02*
X131414600Y-66156675D01*
X131414600Y-66156675D02*
X131366981Y-66109056D01*
X131366981Y-66109056D02*
X131414600Y-66061436D01*
X131414600Y-66061436D02*
X131414600Y-66156675D01*
X132414599Y-66156675D02*
X131843171Y-66156675D01*
X132128885Y-66156675D02*
X132128885Y-65156675D01*
X132128885Y-65156675D02*
X132033647Y-65299532D01*
X132033647Y-65299532D02*
X131938409Y-65394770D01*
X131938409Y-65394770D02*
X131843171Y-65442389D01*
X124938408Y-67004714D02*
X124843169Y-66957095D01*
X124843169Y-66957095D02*
X124652693Y-66957095D01*
X124652693Y-66957095D02*
X124557455Y-67004714D01*
X124557455Y-67004714D02*
X124462217Y-67099952D01*
X124462217Y-67099952D02*
X124414598Y-67195190D01*
X124414598Y-67195190D02*
X124414598Y-67385666D01*
X124414598Y-67385666D02*
X124462217Y-67480904D01*
X124462217Y-67480904D02*
X124557455Y-67576142D01*
X124557455Y-67576142D02*
X124652693Y-67623761D01*
X124652693Y-67623761D02*
X124843169Y-67623761D01*
X124843169Y-67623761D02*
X124938408Y-67576142D01*
X124747931Y-66623761D02*
X124509836Y-66671380D01*
X124509836Y-66671380D02*
X124271741Y-66814238D01*
X124271741Y-66814238D02*
X124128884Y-67052333D01*
X124128884Y-67052333D02*
X124081265Y-67290428D01*
X124081265Y-67290428D02*
X124128884Y-67528523D01*
X124128884Y-67528523D02*
X124271741Y-67766619D01*
X124271741Y-67766619D02*
X124509836Y-67909476D01*
X124509836Y-67909476D02*
X124747931Y-67957095D01*
X124747931Y-67957095D02*
X124986027Y-67909476D01*
X124986027Y-67909476D02*
X125224122Y-67766619D01*
X125224122Y-67766619D02*
X125366979Y-67528523D01*
X125366979Y-67528523D02*
X125414598Y-67290428D01*
X125414598Y-67290428D02*
X125366979Y-67052333D01*
X125366979Y-67052333D02*
X125224122Y-66814238D01*
X125224122Y-66814238D02*
X124986027Y-66671380D01*
X124986027Y-66671380D02*
X124747931Y-66623761D01*
X127081265Y-67766619D02*
X126605075Y-67766619D01*
X126605075Y-67766619D02*
X126605075Y-66766619D01*
X127843170Y-67099952D02*
X127843170Y-67766619D01*
X127414599Y-67099952D02*
X127414599Y-67623761D01*
X127414599Y-67623761D02*
X127462218Y-67719000D01*
X127462218Y-67719000D02*
X127557456Y-67766619D01*
X127557456Y-67766619D02*
X127700313Y-67766619D01*
X127700313Y-67766619D02*
X127795551Y-67719000D01*
X127795551Y-67719000D02*
X127843170Y-67671380D01*
X128747932Y-67766619D02*
X128747932Y-66766619D01*
X128747932Y-67719000D02*
X128652694Y-67766619D01*
X128652694Y-67766619D02*
X128462218Y-67766619D01*
X128462218Y-67766619D02*
X128366980Y-67719000D01*
X128366980Y-67719000D02*
X128319361Y-67671380D01*
X128319361Y-67671380D02*
X128271742Y-67576142D01*
X128271742Y-67576142D02*
X128271742Y-67290428D01*
X128271742Y-67290428D02*
X128319361Y-67195190D01*
X128319361Y-67195190D02*
X128366980Y-67147571D01*
X128366980Y-67147571D02*
X128462218Y-67099952D01*
X128462218Y-67099952D02*
X128652694Y-67099952D01*
X128652694Y-67099952D02*
X128747932Y-67147571D01*
X129128885Y-67099952D02*
X129319361Y-67766619D01*
X129319361Y-67766619D02*
X129509837Y-67290428D01*
X129509837Y-67290428D02*
X129700313Y-67766619D01*
X129700313Y-67766619D02*
X129890789Y-67099952D01*
X130271742Y-67766619D02*
X130271742Y-67099952D01*
X130271742Y-66766619D02*
X130224123Y-66814238D01*
X130224123Y-66814238D02*
X130271742Y-66861857D01*
X130271742Y-66861857D02*
X130319361Y-66814238D01*
X130319361Y-66814238D02*
X130271742Y-66766619D01*
X130271742Y-66766619D02*
X130271742Y-66861857D01*
X131176503Y-67099952D02*
X131176503Y-67909476D01*
X131176503Y-67909476D02*
X131128884Y-68004714D01*
X131128884Y-68004714D02*
X131081265Y-68052333D01*
X131081265Y-68052333D02*
X130986027Y-68099952D01*
X130986027Y-68099952D02*
X130843170Y-68099952D01*
X130843170Y-68099952D02*
X130747932Y-68052333D01*
X131176503Y-67719000D02*
X131081265Y-67766619D01*
X131081265Y-67766619D02*
X130890789Y-67766619D01*
X130890789Y-67766619D02*
X130795551Y-67719000D01*
X130795551Y-67719000D02*
X130747932Y-67671380D01*
X130747932Y-67671380D02*
X130700313Y-67576142D01*
X130700313Y-67576142D02*
X130700313Y-67290428D01*
X130700313Y-67290428D02*
X130747932Y-67195190D01*
X130747932Y-67195190D02*
X130795551Y-67147571D01*
X130795551Y-67147571D02*
X130890789Y-67099952D01*
X130890789Y-67099952D02*
X131081265Y-67099952D01*
X131081265Y-67099952D02*
X131176503Y-67147571D01*
X132938408Y-66814238D02*
X132843170Y-66766619D01*
X132843170Y-66766619D02*
X132700313Y-66766619D01*
X132700313Y-66766619D02*
X132557456Y-66814238D01*
X132557456Y-66814238D02*
X132462218Y-66909476D01*
X132462218Y-66909476D02*
X132414599Y-67004714D01*
X132414599Y-67004714D02*
X132366980Y-67195190D01*
X132366980Y-67195190D02*
X132366980Y-67338047D01*
X132366980Y-67338047D02*
X132414599Y-67528523D01*
X132414599Y-67528523D02*
X132462218Y-67623761D01*
X132462218Y-67623761D02*
X132557456Y-67719000D01*
X132557456Y-67719000D02*
X132700313Y-67766619D01*
X132700313Y-67766619D02*
X132795551Y-67766619D01*
X132795551Y-67766619D02*
X132938408Y-67719000D01*
X132938408Y-67719000D02*
X132986027Y-67671380D01*
X132986027Y-67671380D02*
X132986027Y-67338047D01*
X132986027Y-67338047D02*
X132795551Y-67338047D01*
X133843170Y-67766619D02*
X133843170Y-67242809D01*
X133843170Y-67242809D02*
X133795551Y-67147571D01*
X133795551Y-67147571D02*
X133700313Y-67099952D01*
X133700313Y-67099952D02*
X133509837Y-67099952D01*
X133509837Y-67099952D02*
X133414599Y-67147571D01*
X133843170Y-67719000D02*
X133747932Y-67766619D01*
X133747932Y-67766619D02*
X133509837Y-67766619D01*
X133509837Y-67766619D02*
X133414599Y-67719000D01*
X133414599Y-67719000D02*
X133366980Y-67623761D01*
X133366980Y-67623761D02*
X133366980Y-67528523D01*
X133366980Y-67528523D02*
X133414599Y-67433285D01*
X133414599Y-67433285D02*
X133509837Y-67385666D01*
X133509837Y-67385666D02*
X133747932Y-67385666D01*
X133747932Y-67385666D02*
X133843170Y-67338047D01*
X134319361Y-67766619D02*
X134319361Y-66766619D01*
X134319361Y-67147571D02*
X134414599Y-67099952D01*
X134414599Y-67099952D02*
X134605075Y-67099952D01*
X134605075Y-67099952D02*
X134700313Y-67147571D01*
X134700313Y-67147571D02*
X134747932Y-67195190D01*
X134747932Y-67195190D02*
X134795551Y-67290428D01*
X134795551Y-67290428D02*
X134795551Y-67576142D01*
X134795551Y-67576142D02*
X134747932Y-67671380D01*
X134747932Y-67671380D02*
X134700313Y-67719000D01*
X134700313Y-67719000D02*
X134605075Y-67766619D01*
X134605075Y-67766619D02*
X134414599Y-67766619D01*
X134414599Y-67766619D02*
X134319361Y-67719000D01*
X135366980Y-67766619D02*
X135271742Y-67719000D01*
X135271742Y-67719000D02*
X135224123Y-67623761D01*
X135224123Y-67623761D02*
X135224123Y-66766619D01*
X136128885Y-67719000D02*
X136033647Y-67766619D01*
X136033647Y-67766619D02*
X135843171Y-67766619D01*
X135843171Y-67766619D02*
X135747933Y-67719000D01*
X135747933Y-67719000D02*
X135700314Y-67623761D01*
X135700314Y-67623761D02*
X135700314Y-67242809D01*
X135700314Y-67242809D02*
X135747933Y-67147571D01*
X135747933Y-67147571D02*
X135843171Y-67099952D01*
X135843171Y-67099952D02*
X136033647Y-67099952D01*
X136033647Y-67099952D02*
X136128885Y-67147571D01*
X136128885Y-67147571D02*
X136176504Y-67242809D01*
X136176504Y-67242809D02*
X136176504Y-67338047D01*
X136176504Y-67338047D02*
X135700314Y-67433285D01*
X136605076Y-67766619D02*
X136605076Y-67099952D01*
X136605076Y-67290428D02*
X136652695Y-67195190D01*
X136652695Y-67195190D02*
X136700314Y-67147571D01*
X136700314Y-67147571D02*
X136795552Y-67099952D01*
X136795552Y-67099952D02*
X136890790Y-67099952D01*
D11*
X168523419Y-106903238D02*
X168047228Y-107236571D01*
X168523419Y-107474666D02*
X167523419Y-107474666D01*
X167523419Y-107474666D02*
X167523419Y-107093714D01*
X167523419Y-107093714D02*
X167571038Y-106998476D01*
X167571038Y-106998476D02*
X167618657Y-106950857D01*
X167618657Y-106950857D02*
X167713895Y-106903238D01*
X167713895Y-106903238D02*
X167856752Y-106903238D01*
X167856752Y-106903238D02*
X167951990Y-106950857D01*
X167951990Y-106950857D02*
X167999609Y-106998476D01*
X167999609Y-106998476D02*
X168047228Y-107093714D01*
X168047228Y-107093714D02*
X168047228Y-107474666D01*
X167523419Y-106617523D02*
X168523419Y-106284190D01*
X168523419Y-106284190D02*
X167523419Y-105950857D01*
X168523419Y-105093714D02*
X168523419Y-105665142D01*
X168523419Y-105379428D02*
X167523419Y-105379428D01*
X167523419Y-105379428D02*
X167666276Y-105474666D01*
X167666276Y-105474666D02*
X167761514Y-105569904D01*
X167761514Y-105569904D02*
X167809133Y-105665142D01*
X114766666Y-66054819D02*
X114766666Y-66769104D01*
X114766666Y-66769104D02*
X114719047Y-66911961D01*
X114719047Y-66911961D02*
X114623809Y-67007200D01*
X114623809Y-67007200D02*
X114480952Y-67054819D01*
X114480952Y-67054819D02*
X114385714Y-67054819D01*
X115195238Y-66150057D02*
X115242857Y-66102438D01*
X115242857Y-66102438D02*
X115338095Y-66054819D01*
X115338095Y-66054819D02*
X115576190Y-66054819D01*
X115576190Y-66054819D02*
X115671428Y-66102438D01*
X115671428Y-66102438D02*
X115719047Y-66150057D01*
X115719047Y-66150057D02*
X115766666Y-66245295D01*
X115766666Y-66245295D02*
X115766666Y-66340533D01*
X115766666Y-66340533D02*
X115719047Y-66483390D01*
X115719047Y-66483390D02*
X115147619Y-67054819D01*
X115147619Y-67054819D02*
X115766666Y-67054819D01*
X114380952Y-68431009D02*
X114714285Y-68431009D01*
X114857142Y-68954819D02*
X114380952Y-68954819D01*
X114380952Y-68954819D02*
X114380952Y-67954819D01*
X114380952Y-67954819D02*
X114857142Y-67954819D01*
X115285714Y-68288152D02*
X115285714Y-68954819D01*
X115285714Y-68383390D02*
X115333333Y-68335771D01*
X115333333Y-68335771D02*
X115428571Y-68288152D01*
X115428571Y-68288152D02*
X115571428Y-68288152D01*
X115571428Y-68288152D02*
X115666666Y-68335771D01*
X115666666Y-68335771D02*
X115714285Y-68431009D01*
X115714285Y-68431009D02*
X115714285Y-68954819D01*
X116619047Y-68907200D02*
X116523809Y-68954819D01*
X116523809Y-68954819D02*
X116333333Y-68954819D01*
X116333333Y-68954819D02*
X116238095Y-68907200D01*
X116238095Y-68907200D02*
X116190476Y-68859580D01*
X116190476Y-68859580D02*
X116142857Y-68764342D01*
X116142857Y-68764342D02*
X116142857Y-68478628D01*
X116142857Y-68478628D02*
X116190476Y-68383390D01*
X116190476Y-68383390D02*
X116238095Y-68335771D01*
X116238095Y-68335771D02*
X116333333Y-68288152D01*
X116333333Y-68288152D02*
X116523809Y-68288152D01*
X116523809Y-68288152D02*
X116619047Y-68335771D01*
X117761904Y-67907200D02*
X116904762Y-69192914D01*
X118047619Y-68907200D02*
X118190476Y-68954819D01*
X118190476Y-68954819D02*
X118428571Y-68954819D01*
X118428571Y-68954819D02*
X118523809Y-68907200D01*
X118523809Y-68907200D02*
X118571428Y-68859580D01*
X118571428Y-68859580D02*
X118619047Y-68764342D01*
X118619047Y-68764342D02*
X118619047Y-68669104D01*
X118619047Y-68669104D02*
X118571428Y-68573866D01*
X118571428Y-68573866D02*
X118523809Y-68526247D01*
X118523809Y-68526247D02*
X118428571Y-68478628D01*
X118428571Y-68478628D02*
X118238095Y-68431009D01*
X118238095Y-68431009D02*
X118142857Y-68383390D01*
X118142857Y-68383390D02*
X118095238Y-68335771D01*
X118095238Y-68335771D02*
X118047619Y-68240533D01*
X118047619Y-68240533D02*
X118047619Y-68145295D01*
X118047619Y-68145295D02*
X118095238Y-68050057D01*
X118095238Y-68050057D02*
X118142857Y-68002438D01*
X118142857Y-68002438D02*
X118238095Y-67954819D01*
X118238095Y-67954819D02*
X118476190Y-67954819D01*
X118476190Y-67954819D02*
X118619047Y-68002438D01*
X118952381Y-68288152D02*
X119142857Y-68954819D01*
X119142857Y-68954819D02*
X119333333Y-68478628D01*
X119333333Y-68478628D02*
X119523809Y-68954819D01*
X119523809Y-68954819D02*
X119714285Y-68288152D01*
X118866666Y-50454819D02*
X118866666Y-51169104D01*
X118866666Y-51169104D02*
X118819047Y-51311961D01*
X118819047Y-51311961D02*
X118723809Y-51407200D01*
X118723809Y-51407200D02*
X118580952Y-51454819D01*
X118580952Y-51454819D02*
X118485714Y-51454819D01*
X119771428Y-50788152D02*
X119771428Y-51454819D01*
X119533333Y-50407200D02*
X119295238Y-51121485D01*
X119295238Y-51121485D02*
X119914285Y-51121485D01*
X118104762Y-60931009D02*
X118438095Y-60931009D01*
X118580952Y-61454819D02*
X118104762Y-61454819D01*
X118104762Y-61454819D02*
X118104762Y-60454819D01*
X118104762Y-60454819D02*
X118580952Y-60454819D01*
X119009524Y-60788152D02*
X119009524Y-61454819D01*
X119009524Y-60883390D02*
X119057143Y-60835771D01*
X119057143Y-60835771D02*
X119152381Y-60788152D01*
X119152381Y-60788152D02*
X119295238Y-60788152D01*
X119295238Y-60788152D02*
X119390476Y-60835771D01*
X119390476Y-60835771D02*
X119438095Y-60931009D01*
X119438095Y-60931009D02*
X119438095Y-61454819D01*
X120342857Y-61407200D02*
X120247619Y-61454819D01*
X120247619Y-61454819D02*
X120057143Y-61454819D01*
X120057143Y-61454819D02*
X119961905Y-61407200D01*
X119961905Y-61407200D02*
X119914286Y-61359580D01*
X119914286Y-61359580D02*
X119866667Y-61264342D01*
X119866667Y-61264342D02*
X119866667Y-60978628D01*
X119866667Y-60978628D02*
X119914286Y-60883390D01*
X119914286Y-60883390D02*
X119961905Y-60835771D01*
X119961905Y-60835771D02*
X120057143Y-60788152D01*
X120057143Y-60788152D02*
X120247619Y-60788152D01*
X120247619Y-60788152D02*
X120342857Y-60835771D01*
X107166666Y-50654819D02*
X107166666Y-51369104D01*
X107166666Y-51369104D02*
X107119047Y-51511961D01*
X107119047Y-51511961D02*
X107023809Y-51607200D01*
X107023809Y-51607200D02*
X106880952Y-51654819D01*
X106880952Y-51654819D02*
X106785714Y-51654819D01*
X107547619Y-50654819D02*
X108214285Y-50654819D01*
X108214285Y-50654819D02*
X107785714Y-51654819D01*
D10*
X146383419Y-63831904D02*
X147192942Y-63831904D01*
X147192942Y-63831904D02*
X147288180Y-63784285D01*
X147288180Y-63784285D02*
X147335800Y-63736666D01*
X147335800Y-63736666D02*
X147383419Y-63641428D01*
X147383419Y-63641428D02*
X147383419Y-63450952D01*
X147383419Y-63450952D02*
X147335800Y-63355714D01*
X147335800Y-63355714D02*
X147288180Y-63308095D01*
X147288180Y-63308095D02*
X147192942Y-63260476D01*
X147192942Y-63260476D02*
X146383419Y-63260476D01*
X147383419Y-62260476D02*
X147383419Y-62831904D01*
X147383419Y-62546190D02*
X146383419Y-62546190D01*
X146383419Y-62546190D02*
X146526276Y-62641428D01*
X146526276Y-62641428D02*
X146621514Y-62736666D01*
X146621514Y-62736666D02*
X146669133Y-62831904D01*
D11*
X145880819Y-69093809D02*
X144880819Y-69093809D01*
X144880819Y-69093809D02*
X144880819Y-68855714D01*
X144880819Y-68855714D02*
X144928438Y-68712857D01*
X144928438Y-68712857D02*
X145023676Y-68617619D01*
X145023676Y-68617619D02*
X145118914Y-68570000D01*
X145118914Y-68570000D02*
X145309390Y-68522381D01*
X145309390Y-68522381D02*
X145452247Y-68522381D01*
X145452247Y-68522381D02*
X145642723Y-68570000D01*
X145642723Y-68570000D02*
X145737961Y-68617619D01*
X145737961Y-68617619D02*
X145833200Y-68712857D01*
X145833200Y-68712857D02*
X145880819Y-68855714D01*
X145880819Y-68855714D02*
X145880819Y-69093809D01*
X145880819Y-67522381D02*
X145404628Y-67855714D01*
X145880819Y-68093809D02*
X144880819Y-68093809D01*
X144880819Y-68093809D02*
X144880819Y-67712857D01*
X144880819Y-67712857D02*
X144928438Y-67617619D01*
X144928438Y-67617619D02*
X144976057Y-67570000D01*
X144976057Y-67570000D02*
X145071295Y-67522381D01*
X145071295Y-67522381D02*
X145214152Y-67522381D01*
X145214152Y-67522381D02*
X145309390Y-67570000D01*
X145309390Y-67570000D02*
X145357009Y-67617619D01*
X145357009Y-67617619D02*
X145404628Y-67712857D01*
X145404628Y-67712857D02*
X145404628Y-68093809D01*
X144880819Y-67236666D02*
X145880819Y-66903333D01*
X145880819Y-66903333D02*
X144880819Y-66570000D01*
X145309390Y-66093809D02*
X145261771Y-66189047D01*
X145261771Y-66189047D02*
X145214152Y-66236666D01*
X145214152Y-66236666D02*
X145118914Y-66284285D01*
X145118914Y-66284285D02*
X145071295Y-66284285D01*
X145071295Y-66284285D02*
X144976057Y-66236666D01*
X144976057Y-66236666D02*
X144928438Y-66189047D01*
X144928438Y-66189047D02*
X144880819Y-66093809D01*
X144880819Y-66093809D02*
X144880819Y-65903333D01*
X144880819Y-65903333D02*
X144928438Y-65808095D01*
X144928438Y-65808095D02*
X144976057Y-65760476D01*
X144976057Y-65760476D02*
X145071295Y-65712857D01*
X145071295Y-65712857D02*
X145118914Y-65712857D01*
X145118914Y-65712857D02*
X145214152Y-65760476D01*
X145214152Y-65760476D02*
X145261771Y-65808095D01*
X145261771Y-65808095D02*
X145309390Y-65903333D01*
X145309390Y-65903333D02*
X145309390Y-66093809D01*
X145309390Y-66093809D02*
X145357009Y-66189047D01*
X145357009Y-66189047D02*
X145404628Y-66236666D01*
X145404628Y-66236666D02*
X145499866Y-66284285D01*
X145499866Y-66284285D02*
X145690342Y-66284285D01*
X145690342Y-66284285D02*
X145785580Y-66236666D01*
X145785580Y-66236666D02*
X145833200Y-66189047D01*
X145833200Y-66189047D02*
X145880819Y-66093809D01*
X145880819Y-66093809D02*
X145880819Y-65903333D01*
X145880819Y-65903333D02*
X145833200Y-65808095D01*
X145833200Y-65808095D02*
X145785580Y-65760476D01*
X145785580Y-65760476D02*
X145690342Y-65712857D01*
X145690342Y-65712857D02*
X145499866Y-65712857D01*
X145499866Y-65712857D02*
X145404628Y-65760476D01*
X145404628Y-65760476D02*
X145357009Y-65808095D01*
X145357009Y-65808095D02*
X145309390Y-65903333D01*
X145309390Y-65141428D02*
X145261771Y-65236666D01*
X145261771Y-65236666D02*
X145214152Y-65284285D01*
X145214152Y-65284285D02*
X145118914Y-65331904D01*
X145118914Y-65331904D02*
X145071295Y-65331904D01*
X145071295Y-65331904D02*
X144976057Y-65284285D01*
X144976057Y-65284285D02*
X144928438Y-65236666D01*
X144928438Y-65236666D02*
X144880819Y-65141428D01*
X144880819Y-65141428D02*
X144880819Y-64950952D01*
X144880819Y-64950952D02*
X144928438Y-64855714D01*
X144928438Y-64855714D02*
X144976057Y-64808095D01*
X144976057Y-64808095D02*
X145071295Y-64760476D01*
X145071295Y-64760476D02*
X145118914Y-64760476D01*
X145118914Y-64760476D02*
X145214152Y-64808095D01*
X145214152Y-64808095D02*
X145261771Y-64855714D01*
X145261771Y-64855714D02*
X145309390Y-64950952D01*
X145309390Y-64950952D02*
X145309390Y-65141428D01*
X145309390Y-65141428D02*
X145357009Y-65236666D01*
X145357009Y-65236666D02*
X145404628Y-65284285D01*
X145404628Y-65284285D02*
X145499866Y-65331904D01*
X145499866Y-65331904D02*
X145690342Y-65331904D01*
X145690342Y-65331904D02*
X145785580Y-65284285D01*
X145785580Y-65284285D02*
X145833200Y-65236666D01*
X145833200Y-65236666D02*
X145880819Y-65141428D01*
X145880819Y-65141428D02*
X145880819Y-64950952D01*
X145880819Y-64950952D02*
X145833200Y-64855714D01*
X145833200Y-64855714D02*
X145785580Y-64808095D01*
X145785580Y-64808095D02*
X145690342Y-64760476D01*
X145690342Y-64760476D02*
X145499866Y-64760476D01*
X145499866Y-64760476D02*
X145404628Y-64808095D01*
X145404628Y-64808095D02*
X145357009Y-64855714D01*
X145357009Y-64855714D02*
X145309390Y-64950952D01*
X144880819Y-64427142D02*
X144880819Y-63808095D01*
X144880819Y-63808095D02*
X145261771Y-64141428D01*
X145261771Y-64141428D02*
X145261771Y-63998571D01*
X145261771Y-63998571D02*
X145309390Y-63903333D01*
X145309390Y-63903333D02*
X145357009Y-63855714D01*
X145357009Y-63855714D02*
X145452247Y-63808095D01*
X145452247Y-63808095D02*
X145690342Y-63808095D01*
X145690342Y-63808095D02*
X145785580Y-63855714D01*
X145785580Y-63855714D02*
X145833200Y-63903333D01*
X145833200Y-63903333D02*
X145880819Y-63998571D01*
X145880819Y-63998571D02*
X145880819Y-64284285D01*
X145880819Y-64284285D02*
X145833200Y-64379523D01*
X145833200Y-64379523D02*
X145785580Y-64427142D01*
X145309390Y-63236666D02*
X145261771Y-63331904D01*
X145261771Y-63331904D02*
X145214152Y-63379523D01*
X145214152Y-63379523D02*
X145118914Y-63427142D01*
X145118914Y-63427142D02*
X145071295Y-63427142D01*
X145071295Y-63427142D02*
X144976057Y-63379523D01*
X144976057Y-63379523D02*
X144928438Y-63331904D01*
X144928438Y-63331904D02*
X144880819Y-63236666D01*
X144880819Y-63236666D02*
X144880819Y-63046190D01*
X144880819Y-63046190D02*
X144928438Y-62950952D01*
X144928438Y-62950952D02*
X144976057Y-62903333D01*
X144976057Y-62903333D02*
X145071295Y-62855714D01*
X145071295Y-62855714D02*
X145118914Y-62855714D01*
X145118914Y-62855714D02*
X145214152Y-62903333D01*
X145214152Y-62903333D02*
X145261771Y-62950952D01*
X145261771Y-62950952D02*
X145309390Y-63046190D01*
X145309390Y-63046190D02*
X145309390Y-63236666D01*
X145309390Y-63236666D02*
X145357009Y-63331904D01*
X145357009Y-63331904D02*
X145404628Y-63379523D01*
X145404628Y-63379523D02*
X145499866Y-63427142D01*
X145499866Y-63427142D02*
X145690342Y-63427142D01*
X145690342Y-63427142D02*
X145785580Y-63379523D01*
X145785580Y-63379523D02*
X145833200Y-63331904D01*
X145833200Y-63331904D02*
X145880819Y-63236666D01*
X145880819Y-63236666D02*
X145880819Y-63046190D01*
X145880819Y-63046190D02*
X145833200Y-62950952D01*
X145833200Y-62950952D02*
X145785580Y-62903333D01*
X145785580Y-62903333D02*
X145690342Y-62855714D01*
X145690342Y-62855714D02*
X145499866Y-62855714D01*
X145499866Y-62855714D02*
X145404628Y-62903333D01*
X145404628Y-62903333D02*
X145357009Y-62950952D01*
X145357009Y-62950952D02*
X145309390Y-63046190D01*
X145785580Y-61093809D02*
X145833200Y-61141428D01*
X145833200Y-61141428D02*
X145880819Y-61284285D01*
X145880819Y-61284285D02*
X145880819Y-61379523D01*
X145880819Y-61379523D02*
X145833200Y-61522380D01*
X145833200Y-61522380D02*
X145737961Y-61617618D01*
X145737961Y-61617618D02*
X145642723Y-61665237D01*
X145642723Y-61665237D02*
X145452247Y-61712856D01*
X145452247Y-61712856D02*
X145309390Y-61712856D01*
X145309390Y-61712856D02*
X145118914Y-61665237D01*
X145118914Y-61665237D02*
X145023676Y-61617618D01*
X145023676Y-61617618D02*
X144928438Y-61522380D01*
X144928438Y-61522380D02*
X144880819Y-61379523D01*
X144880819Y-61379523D02*
X144880819Y-61284285D01*
X144880819Y-61284285D02*
X144928438Y-61141428D01*
X144928438Y-61141428D02*
X144976057Y-61093809D01*
X145880819Y-60236666D02*
X145357009Y-60236666D01*
X145357009Y-60236666D02*
X145261771Y-60284285D01*
X145261771Y-60284285D02*
X145214152Y-60379523D01*
X145214152Y-60379523D02*
X145214152Y-60569999D01*
X145214152Y-60569999D02*
X145261771Y-60665237D01*
X145833200Y-60236666D02*
X145880819Y-60331904D01*
X145880819Y-60331904D02*
X145880819Y-60569999D01*
X145880819Y-60569999D02*
X145833200Y-60665237D01*
X145833200Y-60665237D02*
X145737961Y-60712856D01*
X145737961Y-60712856D02*
X145642723Y-60712856D01*
X145642723Y-60712856D02*
X145547485Y-60665237D01*
X145547485Y-60665237D02*
X145499866Y-60569999D01*
X145499866Y-60569999D02*
X145499866Y-60331904D01*
X145499866Y-60331904D02*
X145452247Y-60236666D01*
X145880819Y-59760475D02*
X145214152Y-59760475D01*
X145404628Y-59760475D02*
X145309390Y-59712856D01*
X145309390Y-59712856D02*
X145261771Y-59665237D01*
X145261771Y-59665237D02*
X145214152Y-59569999D01*
X145214152Y-59569999D02*
X145214152Y-59474761D01*
X145880819Y-59141427D02*
X145214152Y-59141427D01*
X145404628Y-59141427D02*
X145309390Y-59093808D01*
X145309390Y-59093808D02*
X145261771Y-59046189D01*
X145261771Y-59046189D02*
X145214152Y-58950951D01*
X145214152Y-58950951D02*
X145214152Y-58855713D01*
X145880819Y-58522379D02*
X145214152Y-58522379D01*
X144880819Y-58522379D02*
X144928438Y-58569998D01*
X144928438Y-58569998D02*
X144976057Y-58522379D01*
X144976057Y-58522379D02*
X144928438Y-58474760D01*
X144928438Y-58474760D02*
X144880819Y-58522379D01*
X144880819Y-58522379D02*
X144976057Y-58522379D01*
X145833200Y-57665237D02*
X145880819Y-57760475D01*
X145880819Y-57760475D02*
X145880819Y-57950951D01*
X145880819Y-57950951D02*
X145833200Y-58046189D01*
X145833200Y-58046189D02*
X145737961Y-58093808D01*
X145737961Y-58093808D02*
X145357009Y-58093808D01*
X145357009Y-58093808D02*
X145261771Y-58046189D01*
X145261771Y-58046189D02*
X145214152Y-57950951D01*
X145214152Y-57950951D02*
X145214152Y-57760475D01*
X145214152Y-57760475D02*
X145261771Y-57665237D01*
X145261771Y-57665237D02*
X145357009Y-57617618D01*
X145357009Y-57617618D02*
X145452247Y-57617618D01*
X145452247Y-57617618D02*
X145547485Y-58093808D01*
X145880819Y-57189046D02*
X145214152Y-57189046D01*
X145404628Y-57189046D02*
X145309390Y-57141427D01*
X145309390Y-57141427D02*
X145261771Y-57093808D01*
X145261771Y-57093808D02*
X145214152Y-56998570D01*
X145214152Y-56998570D02*
X145214152Y-56903332D01*
X102154819Y-58433333D02*
X102869104Y-58433333D01*
X102869104Y-58433333D02*
X103011961Y-58480952D01*
X103011961Y-58480952D02*
X103107200Y-58576190D01*
X103107200Y-58576190D02*
X103154819Y-58719047D01*
X103154819Y-58719047D02*
X103154819Y-58814285D01*
X102154819Y-57528571D02*
X102154819Y-57719047D01*
X102154819Y-57719047D02*
X102202438Y-57814285D01*
X102202438Y-57814285D02*
X102250057Y-57861904D01*
X102250057Y-57861904D02*
X102392914Y-57957142D01*
X102392914Y-57957142D02*
X102583390Y-58004761D01*
X102583390Y-58004761D02*
X102964342Y-58004761D01*
X102964342Y-58004761D02*
X103059580Y-57957142D01*
X103059580Y-57957142D02*
X103107200Y-57909523D01*
X103107200Y-57909523D02*
X103154819Y-57814285D01*
X103154819Y-57814285D02*
X103154819Y-57623809D01*
X103154819Y-57623809D02*
X103107200Y-57528571D01*
X103107200Y-57528571D02*
X103059580Y-57480952D01*
X103059580Y-57480952D02*
X102964342Y-57433333D01*
X102964342Y-57433333D02*
X102726247Y-57433333D01*
X102726247Y-57433333D02*
X102631009Y-57480952D01*
X102631009Y-57480952D02*
X102583390Y-57528571D01*
X102583390Y-57528571D02*
X102535771Y-57623809D01*
X102535771Y-57623809D02*
X102535771Y-57814285D01*
X102535771Y-57814285D02*
X102583390Y-57909523D01*
X102583390Y-57909523D02*
X102631009Y-57957142D01*
X102631009Y-57957142D02*
X102726247Y-58004761D01*
X135766666Y-50454819D02*
X135766666Y-51169104D01*
X135766666Y-51169104D02*
X135719047Y-51311961D01*
X135719047Y-51311961D02*
X135623809Y-51407200D01*
X135623809Y-51407200D02*
X135480952Y-51454819D01*
X135480952Y-51454819D02*
X135385714Y-51454819D01*
X136766666Y-51454819D02*
X136195238Y-51454819D01*
X136480952Y-51454819D02*
X136480952Y-50454819D01*
X136480952Y-50454819D02*
X136385714Y-50597676D01*
X136385714Y-50597676D02*
X136290476Y-50692914D01*
X136290476Y-50692914D02*
X136195238Y-50740533D01*
X135028571Y-61454819D02*
X135028571Y-60454819D01*
X135028571Y-60454819D02*
X135361904Y-61169104D01*
X135361904Y-61169104D02*
X135695237Y-60454819D01*
X135695237Y-60454819D02*
X135695237Y-61454819D01*
X136314285Y-61454819D02*
X136219047Y-61407200D01*
X136219047Y-61407200D02*
X136171428Y-61359580D01*
X136171428Y-61359580D02*
X136123809Y-61264342D01*
X136123809Y-61264342D02*
X136123809Y-60978628D01*
X136123809Y-60978628D02*
X136171428Y-60883390D01*
X136171428Y-60883390D02*
X136219047Y-60835771D01*
X136219047Y-60835771D02*
X136314285Y-60788152D01*
X136314285Y-60788152D02*
X136457142Y-60788152D01*
X136457142Y-60788152D02*
X136552380Y-60835771D01*
X136552380Y-60835771D02*
X136599999Y-60883390D01*
X136599999Y-60883390D02*
X136647618Y-60978628D01*
X136647618Y-60978628D02*
X136647618Y-61264342D01*
X136647618Y-61264342D02*
X136599999Y-61359580D01*
X136599999Y-61359580D02*
X136552380Y-61407200D01*
X136552380Y-61407200D02*
X136457142Y-61454819D01*
X136457142Y-61454819D02*
X136314285Y-61454819D01*
X136933333Y-60788152D02*
X137314285Y-60788152D01*
X137076190Y-60454819D02*
X137076190Y-61311961D01*
X137076190Y-61311961D02*
X137123809Y-61407200D01*
X137123809Y-61407200D02*
X137219047Y-61454819D01*
X137219047Y-61454819D02*
X137314285Y-61454819D01*
X159004819Y-101333333D02*
X159719104Y-101333333D01*
X159719104Y-101333333D02*
X159861961Y-101380952D01*
X159861961Y-101380952D02*
X159957200Y-101476190D01*
X159957200Y-101476190D02*
X160004819Y-101619047D01*
X160004819Y-101619047D02*
X160004819Y-101714285D01*
X159004819Y-100952380D02*
X159004819Y-100333333D01*
X159004819Y-100333333D02*
X159385771Y-100666666D01*
X159385771Y-100666666D02*
X159385771Y-100523809D01*
X159385771Y-100523809D02*
X159433390Y-100428571D01*
X159433390Y-100428571D02*
X159481009Y-100380952D01*
X159481009Y-100380952D02*
X159576247Y-100333333D01*
X159576247Y-100333333D02*
X159814342Y-100333333D01*
X159814342Y-100333333D02*
X159909580Y-100380952D01*
X159909580Y-100380952D02*
X159957200Y-100428571D01*
X159957200Y-100428571D02*
X160004819Y-100523809D01*
X160004819Y-100523809D02*
X160004819Y-100809523D01*
X160004819Y-100809523D02*
X159957200Y-100904761D01*
X159957200Y-100904761D02*
X159909580Y-100952380D01*
X160554819Y-102452380D02*
X160554819Y-102261904D01*
X160554819Y-102261904D02*
X160602438Y-102166666D01*
X160602438Y-102166666D02*
X160697676Y-102071428D01*
X160697676Y-102071428D02*
X160888152Y-102023809D01*
X160888152Y-102023809D02*
X161221485Y-102023809D01*
X161221485Y-102023809D02*
X161411961Y-102071428D01*
X161411961Y-102071428D02*
X161507200Y-102166666D01*
X161507200Y-102166666D02*
X161554819Y-102261904D01*
X161554819Y-102261904D02*
X161554819Y-102452380D01*
X161554819Y-102452380D02*
X161507200Y-102547618D01*
X161507200Y-102547618D02*
X161411961Y-102642856D01*
X161411961Y-102642856D02*
X161221485Y-102690475D01*
X161221485Y-102690475D02*
X160888152Y-102690475D01*
X160888152Y-102690475D02*
X160697676Y-102642856D01*
X160697676Y-102642856D02*
X160602438Y-102547618D01*
X160602438Y-102547618D02*
X160554819Y-102452380D01*
X161554819Y-101119047D02*
X161554819Y-101595237D01*
X161554819Y-101595237D02*
X160554819Y-101595237D01*
X161031009Y-100785713D02*
X161031009Y-100452380D01*
X161554819Y-100309523D02*
X161554819Y-100785713D01*
X161554819Y-100785713D02*
X160554819Y-100785713D01*
X160554819Y-100785713D02*
X160554819Y-100309523D01*
X161554819Y-99880951D02*
X160554819Y-99880951D01*
X160554819Y-99880951D02*
X160554819Y-99642856D01*
X160554819Y-99642856D02*
X160602438Y-99499999D01*
X160602438Y-99499999D02*
X160697676Y-99404761D01*
X160697676Y-99404761D02*
X160792914Y-99357142D01*
X160792914Y-99357142D02*
X160983390Y-99309523D01*
X160983390Y-99309523D02*
X161126247Y-99309523D01*
X161126247Y-99309523D02*
X161316723Y-99357142D01*
X161316723Y-99357142D02*
X161411961Y-99404761D01*
X161411961Y-99404761D02*
X161507200Y-99499999D01*
X161507200Y-99499999D02*
X161554819Y-99642856D01*
X161554819Y-99642856D02*
X161554819Y-99880951D01*
X127816666Y-50454819D02*
X127816666Y-51169104D01*
X127816666Y-51169104D02*
X127769047Y-51311961D01*
X127769047Y-51311961D02*
X127673809Y-51407200D01*
X127673809Y-51407200D02*
X127530952Y-51454819D01*
X127530952Y-51454819D02*
X127435714Y-51454819D01*
X128769047Y-50454819D02*
X128292857Y-50454819D01*
X128292857Y-50454819D02*
X128245238Y-50931009D01*
X128245238Y-50931009D02*
X128292857Y-50883390D01*
X128292857Y-50883390D02*
X128388095Y-50835771D01*
X128388095Y-50835771D02*
X128626190Y-50835771D01*
X128626190Y-50835771D02*
X128721428Y-50883390D01*
X128721428Y-50883390D02*
X128769047Y-50931009D01*
X128769047Y-50931009D02*
X128816666Y-51026247D01*
X128816666Y-51026247D02*
X128816666Y-51264342D01*
X128816666Y-51264342D02*
X128769047Y-51359580D01*
X128769047Y-51359580D02*
X128721428Y-51407200D01*
X128721428Y-51407200D02*
X128626190Y-51454819D01*
X128626190Y-51454819D02*
X128388095Y-51454819D01*
X128388095Y-51454819D02*
X128292857Y-51407200D01*
X128292857Y-51407200D02*
X128245238Y-51359580D01*
X127150000Y-61454819D02*
X127150000Y-60454819D01*
X127150000Y-60454819D02*
X127530952Y-60454819D01*
X127530952Y-60454819D02*
X127626190Y-60502438D01*
X127626190Y-60502438D02*
X127673809Y-60550057D01*
X127673809Y-60550057D02*
X127721428Y-60645295D01*
X127721428Y-60645295D02*
X127721428Y-60788152D01*
X127721428Y-60788152D02*
X127673809Y-60883390D01*
X127673809Y-60883390D02*
X127626190Y-60931009D01*
X127626190Y-60931009D02*
X127530952Y-60978628D01*
X127530952Y-60978628D02*
X127150000Y-60978628D01*
X128292857Y-61454819D02*
X128197619Y-61407200D01*
X128197619Y-61407200D02*
X128150000Y-61359580D01*
X128150000Y-61359580D02*
X128102381Y-61264342D01*
X128102381Y-61264342D02*
X128102381Y-60978628D01*
X128102381Y-60978628D02*
X128150000Y-60883390D01*
X128150000Y-60883390D02*
X128197619Y-60835771D01*
X128197619Y-60835771D02*
X128292857Y-60788152D01*
X128292857Y-60788152D02*
X128435714Y-60788152D01*
X128435714Y-60788152D02*
X128530952Y-60835771D01*
X128530952Y-60835771D02*
X128578571Y-60883390D01*
X128578571Y-60883390D02*
X128626190Y-60978628D01*
X128626190Y-60978628D02*
X128626190Y-61264342D01*
X128626190Y-61264342D02*
X128578571Y-61359580D01*
X128578571Y-61359580D02*
X128530952Y-61407200D01*
X128530952Y-61407200D02*
X128435714Y-61454819D01*
X128435714Y-61454819D02*
X128292857Y-61454819D01*
X128911905Y-60788152D02*
X129292857Y-60788152D01*
X129054762Y-60454819D02*
X129054762Y-61311961D01*
X129054762Y-61311961D02*
X129102381Y-61407200D01*
X129102381Y-61407200D02*
X129197619Y-61454819D01*
X129197619Y-61454819D02*
X129292857Y-61454819D01*
X159677714Y-95476104D02*
X160153904Y-95476104D01*
X159582476Y-95761819D02*
X159915809Y-94761819D01*
X159915809Y-94761819D02*
X160249142Y-95761819D01*
X161106285Y-95761819D02*
X160534857Y-95761819D01*
X160820571Y-95761819D02*
X160820571Y-94761819D01*
X160820571Y-94761819D02*
X160725333Y-94904676D01*
X160725333Y-94904676D02*
X160630095Y-94999914D01*
X160630095Y-94999914D02*
X160534857Y-95047533D01*
X159291104Y-77915095D02*
X159291104Y-77438905D01*
X159576819Y-78010333D02*
X158576819Y-77677000D01*
X158576819Y-77677000D02*
X159576819Y-77343667D01*
X159576819Y-77010333D02*
X158910152Y-77010333D01*
X159100628Y-77010333D02*
X159005390Y-76962714D01*
X159005390Y-76962714D02*
X158957771Y-76915095D01*
X158957771Y-76915095D02*
X158910152Y-76819857D01*
X158910152Y-76819857D02*
X158910152Y-76724619D01*
X159576819Y-75962714D02*
X158576819Y-75962714D01*
X159529200Y-75962714D02*
X159576819Y-76057952D01*
X159576819Y-76057952D02*
X159576819Y-76248428D01*
X159576819Y-76248428D02*
X159529200Y-76343666D01*
X159529200Y-76343666D02*
X159481580Y-76391285D01*
X159481580Y-76391285D02*
X159386342Y-76438904D01*
X159386342Y-76438904D02*
X159100628Y-76438904D01*
X159100628Y-76438904D02*
X159005390Y-76391285D01*
X159005390Y-76391285D02*
X158957771Y-76343666D01*
X158957771Y-76343666D02*
X158910152Y-76248428D01*
X158910152Y-76248428D02*
X158910152Y-76057952D01*
X158910152Y-76057952D02*
X158957771Y-75962714D01*
X158910152Y-75057952D02*
X159576819Y-75057952D01*
X158910152Y-75486523D02*
X159433961Y-75486523D01*
X159433961Y-75486523D02*
X159529200Y-75438904D01*
X159529200Y-75438904D02*
X159576819Y-75343666D01*
X159576819Y-75343666D02*
X159576819Y-75200809D01*
X159576819Y-75200809D02*
X159529200Y-75105571D01*
X159529200Y-75105571D02*
X159481580Y-75057952D01*
X159576819Y-74581761D02*
X158910152Y-74581761D01*
X158576819Y-74581761D02*
X158624438Y-74629380D01*
X158624438Y-74629380D02*
X158672057Y-74581761D01*
X158672057Y-74581761D02*
X158624438Y-74534142D01*
X158624438Y-74534142D02*
X158576819Y-74581761D01*
X158576819Y-74581761D02*
X158672057Y-74581761D01*
X158910152Y-74105571D02*
X159576819Y-74105571D01*
X159005390Y-74105571D02*
X158957771Y-74057952D01*
X158957771Y-74057952D02*
X158910152Y-73962714D01*
X158910152Y-73962714D02*
X158910152Y-73819857D01*
X158910152Y-73819857D02*
X158957771Y-73724619D01*
X158957771Y-73724619D02*
X159053009Y-73677000D01*
X159053009Y-73677000D02*
X159576819Y-73677000D01*
X159576819Y-73057952D02*
X159529200Y-73153190D01*
X159529200Y-73153190D02*
X159481580Y-73200809D01*
X159481580Y-73200809D02*
X159386342Y-73248428D01*
X159386342Y-73248428D02*
X159100628Y-73248428D01*
X159100628Y-73248428D02*
X159005390Y-73200809D01*
X159005390Y-73200809D02*
X158957771Y-73153190D01*
X158957771Y-73153190D02*
X158910152Y-73057952D01*
X158910152Y-73057952D02*
X158910152Y-72915095D01*
X158910152Y-72915095D02*
X158957771Y-72819857D01*
X158957771Y-72819857D02*
X159005390Y-72772238D01*
X159005390Y-72772238D02*
X159100628Y-72724619D01*
X159100628Y-72724619D02*
X159386342Y-72724619D01*
X159386342Y-72724619D02*
X159481580Y-72772238D01*
X159481580Y-72772238D02*
X159529200Y-72819857D01*
X159529200Y-72819857D02*
X159576819Y-72915095D01*
X159576819Y-72915095D02*
X159576819Y-73057952D01*
X159672057Y-72534143D02*
X159672057Y-71772238D01*
X159576819Y-71534142D02*
X158576819Y-71534142D01*
X158576819Y-71534142D02*
X159576819Y-70962714D01*
X159576819Y-70962714D02*
X158576819Y-70962714D01*
X159576819Y-70057952D02*
X159053009Y-70057952D01*
X159053009Y-70057952D02*
X158957771Y-70105571D01*
X158957771Y-70105571D02*
X158910152Y-70200809D01*
X158910152Y-70200809D02*
X158910152Y-70391285D01*
X158910152Y-70391285D02*
X158957771Y-70486523D01*
X159529200Y-70057952D02*
X159576819Y-70153190D01*
X159576819Y-70153190D02*
X159576819Y-70391285D01*
X159576819Y-70391285D02*
X159529200Y-70486523D01*
X159529200Y-70486523D02*
X159433961Y-70534142D01*
X159433961Y-70534142D02*
X159338723Y-70534142D01*
X159338723Y-70534142D02*
X159243485Y-70486523D01*
X159243485Y-70486523D02*
X159195866Y-70391285D01*
X159195866Y-70391285D02*
X159195866Y-70153190D01*
X159195866Y-70153190D02*
X159148247Y-70057952D01*
X158910152Y-69581761D02*
X159576819Y-69581761D01*
X159005390Y-69581761D02*
X158957771Y-69534142D01*
X158957771Y-69534142D02*
X158910152Y-69438904D01*
X158910152Y-69438904D02*
X158910152Y-69296047D01*
X158910152Y-69296047D02*
X158957771Y-69200809D01*
X158957771Y-69200809D02*
X159053009Y-69153190D01*
X159053009Y-69153190D02*
X159576819Y-69153190D01*
X159576819Y-68534142D02*
X159529200Y-68629380D01*
X159529200Y-68629380D02*
X159481580Y-68676999D01*
X159481580Y-68676999D02*
X159386342Y-68724618D01*
X159386342Y-68724618D02*
X159100628Y-68724618D01*
X159100628Y-68724618D02*
X159005390Y-68676999D01*
X159005390Y-68676999D02*
X158957771Y-68629380D01*
X158957771Y-68629380D02*
X158910152Y-68534142D01*
X158910152Y-68534142D02*
X158910152Y-68391285D01*
X158910152Y-68391285D02*
X158957771Y-68296047D01*
X158957771Y-68296047D02*
X159005390Y-68248428D01*
X159005390Y-68248428D02*
X159100628Y-68200809D01*
X159100628Y-68200809D02*
X159386342Y-68200809D01*
X159386342Y-68200809D02*
X159481580Y-68248428D01*
X159481580Y-68248428D02*
X159529200Y-68296047D01*
X159529200Y-68296047D02*
X159576819Y-68391285D01*
X159576819Y-68391285D02*
X159576819Y-68534142D01*
X159672057Y-68010333D02*
X159672057Y-67248428D01*
X158910152Y-67105570D02*
X159576819Y-66867475D01*
X159576819Y-66867475D02*
X158910152Y-66629380D01*
X158576819Y-66343665D02*
X158576819Y-65724618D01*
X158576819Y-65724618D02*
X158957771Y-66057951D01*
X158957771Y-66057951D02*
X158957771Y-65915094D01*
X158957771Y-65915094D02*
X159005390Y-65819856D01*
X159005390Y-65819856D02*
X159053009Y-65772237D01*
X159053009Y-65772237D02*
X159148247Y-65724618D01*
X159148247Y-65724618D02*
X159386342Y-65724618D01*
X159386342Y-65724618D02*
X159481580Y-65772237D01*
X159481580Y-65772237D02*
X159529200Y-65819856D01*
X159529200Y-65819856D02*
X159576819Y-65915094D01*
X159576819Y-65915094D02*
X159576819Y-66200808D01*
X159576819Y-66200808D02*
X159529200Y-66296046D01*
X159529200Y-66296046D02*
X159481580Y-66343665D01*
X159481580Y-65296046D02*
X159529200Y-65248427D01*
X159529200Y-65248427D02*
X159576819Y-65296046D01*
X159576819Y-65296046D02*
X159529200Y-65343665D01*
X159529200Y-65343665D02*
X159481580Y-65296046D01*
X159481580Y-65296046D02*
X159576819Y-65296046D01*
X159576819Y-64915094D02*
X158910152Y-64391285D01*
X158910152Y-64915094D02*
X159576819Y-64391285D01*
X161653904Y-55212180D02*
X161653904Y-54402657D01*
X161653904Y-54402657D02*
X161606285Y-54307419D01*
X161606285Y-54307419D02*
X161558666Y-54259800D01*
X161558666Y-54259800D02*
X161463428Y-54212180D01*
X161463428Y-54212180D02*
X161272952Y-54212180D01*
X161272952Y-54212180D02*
X161177714Y-54259800D01*
X161177714Y-54259800D02*
X161130095Y-54307419D01*
X161130095Y-54307419D02*
X161082476Y-54402657D01*
X161082476Y-54402657D02*
X161082476Y-55212180D01*
X160653904Y-54259800D02*
X160511047Y-54212180D01*
X160511047Y-54212180D02*
X160272952Y-54212180D01*
X160272952Y-54212180D02*
X160177714Y-54259800D01*
X160177714Y-54259800D02*
X160130095Y-54307419D01*
X160130095Y-54307419D02*
X160082476Y-54402657D01*
X160082476Y-54402657D02*
X160082476Y-54497895D01*
X160082476Y-54497895D02*
X160130095Y-54593133D01*
X160130095Y-54593133D02*
X160177714Y-54640752D01*
X160177714Y-54640752D02*
X160272952Y-54688371D01*
X160272952Y-54688371D02*
X160463428Y-54735990D01*
X160463428Y-54735990D02*
X160558666Y-54783609D01*
X160558666Y-54783609D02*
X160606285Y-54831228D01*
X160606285Y-54831228D02*
X160653904Y-54926466D01*
X160653904Y-54926466D02*
X160653904Y-55021704D01*
X160653904Y-55021704D02*
X160606285Y-55116942D01*
X160606285Y-55116942D02*
X160558666Y-55164561D01*
X160558666Y-55164561D02*
X160463428Y-55212180D01*
X160463428Y-55212180D02*
X160225333Y-55212180D01*
X160225333Y-55212180D02*
X160082476Y-55164561D01*
X159320571Y-54735990D02*
X159177714Y-54688371D01*
X159177714Y-54688371D02*
X159130095Y-54640752D01*
X159130095Y-54640752D02*
X159082476Y-54545514D01*
X159082476Y-54545514D02*
X159082476Y-54402657D01*
X159082476Y-54402657D02*
X159130095Y-54307419D01*
X159130095Y-54307419D02*
X159177714Y-54259800D01*
X159177714Y-54259800D02*
X159272952Y-54212180D01*
X159272952Y-54212180D02*
X159653904Y-54212180D01*
X159653904Y-54212180D02*
X159653904Y-55212180D01*
X159653904Y-55212180D02*
X159320571Y-55212180D01*
X159320571Y-55212180D02*
X159225333Y-55164561D01*
X159225333Y-55164561D02*
X159177714Y-55116942D01*
X159177714Y-55116942D02*
X159130095Y-55021704D01*
X159130095Y-55021704D02*
X159130095Y-54926466D01*
X159130095Y-54926466D02*
X159177714Y-54831228D01*
X159177714Y-54831228D02*
X159225333Y-54783609D01*
X159225333Y-54783609D02*
X159320571Y-54735990D01*
X159320571Y-54735990D02*
X159653904Y-54735990D01*
D12*
%TO.C,RV1*%
X151098600Y-107988000D02*
X151098600Y-118728000D01*
X156548600Y-118728000D02*
X156548600Y-123728000D01*
X157048600Y-123728000D02*
X157048600Y-133728000D01*
X163288600Y-123728000D02*
X163288600Y-133728000D01*
X163288600Y-133728000D02*
X157048600Y-133728000D01*
X163788600Y-118728000D02*
X163788600Y-123728000D01*
X163788600Y-123728000D02*
X156548600Y-123728000D01*
X169238600Y-107988000D02*
X151098600Y-107988000D01*
X169238600Y-107988000D02*
X169238600Y-118728000D01*
X169238600Y-118728000D02*
X151098600Y-118728000D01*
%TO.C,J2*%
X101340000Y-65440000D02*
X101340000Y-73260000D01*
X101340000Y-67040000D02*
X102260000Y-67040000D01*
X101340000Y-73260000D02*
X113460000Y-73260000D01*
X102100000Y-69400000D02*
X102100000Y-71000000D01*
X102100000Y-71000000D02*
X103100000Y-71000000D01*
X102260000Y-65440000D02*
X101340000Y-65440000D01*
X102260000Y-67040000D02*
X102260000Y-65440000D01*
X102540000Y-67040000D02*
X102260000Y-67040000D01*
X102540000Y-67040000D02*
X102540000Y-65825000D01*
X102600000Y-71000000D02*
X102600000Y-73260000D01*
X103100000Y-69400000D02*
X102100000Y-69400000D01*
X103100000Y-71000000D02*
X103100000Y-69400000D01*
X103100000Y-71000000D02*
X103100000Y-73260000D01*
X103900000Y-68900000D02*
X110900000Y-68900000D01*
X103900000Y-73260000D02*
X103900000Y-68900000D01*
X110900000Y-68900000D02*
X110900000Y-73260000D01*
X111700000Y-69400000D02*
X112700000Y-69400000D01*
X111700000Y-71000000D02*
X111700000Y-69400000D01*
X112540000Y-65440000D02*
X112540000Y-67040000D01*
X112540000Y-67040000D02*
X112260000Y-67040000D01*
X112700000Y-69400000D02*
X112700000Y-71000000D01*
X112700000Y-71000000D02*
X111700000Y-71000000D01*
X113460000Y-65440000D02*
X112540000Y-65440000D01*
X113460000Y-67040000D02*
X112540000Y-67040000D01*
X113460000Y-73260000D02*
X113460000Y-65440000D01*
%TO.C,J4*%
X115140000Y-52090000D02*
X115140000Y-59910000D01*
X115140000Y-53690000D02*
X116060000Y-53690000D01*
X115140000Y-59910000D02*
X123260000Y-59910000D01*
X115900000Y-56050000D02*
X115900000Y-57650000D01*
X115900000Y-57650000D02*
X116900000Y-57650000D01*
X116060000Y-52090000D02*
X115140000Y-52090000D01*
X116060000Y-53690000D02*
X116060000Y-52090000D01*
X116340000Y-53690000D02*
X116060000Y-53690000D01*
X116340000Y-53690000D02*
X116340000Y-52475000D01*
X116400000Y-57650000D02*
X116400000Y-59910000D01*
X116900000Y-56050000D02*
X115900000Y-56050000D01*
X116900000Y-57650000D02*
X116900000Y-56050000D01*
X116900000Y-57650000D02*
X116900000Y-59910000D01*
X117700000Y-55550000D02*
X120700000Y-55550000D01*
X117700000Y-59910000D02*
X117700000Y-55550000D01*
X120700000Y-55550000D02*
X120700000Y-59910000D01*
X121500000Y-56050000D02*
X122500000Y-56050000D01*
X121500000Y-57650000D02*
X121500000Y-56050000D01*
X122340000Y-52090000D02*
X122340000Y-53690000D01*
X122340000Y-53690000D02*
X122060000Y-53690000D01*
X122500000Y-56050000D02*
X122500000Y-57650000D01*
X122500000Y-57650000D02*
X121500000Y-57650000D01*
X123260000Y-52090000D02*
X122340000Y-52090000D01*
X123260000Y-53690000D02*
X122340000Y-53690000D01*
X123260000Y-59910000D02*
X123260000Y-52090000D01*
%TO.C,J7*%
X109030000Y-50490000D02*
X110360000Y-50490000D01*
X109030000Y-51820000D02*
X109030000Y-50490000D01*
X109030000Y-53090000D02*
X109030000Y-58230000D01*
X109030000Y-53090000D02*
X111630000Y-53090000D01*
X109030000Y-58230000D02*
X114230000Y-58230000D01*
X111630000Y-50490000D02*
X114230000Y-50490000D01*
X111630000Y-53090000D02*
X111630000Y-50490000D01*
X114230000Y-50490000D02*
X114230000Y-58230000D01*
%TO.C,U1*%
D10*
X150530000Y-69420000D02*
X140370000Y-69420000D01*
X140370000Y-56720000D01*
X150530000Y-56720000D01*
X150530000Y-69420000D01*
D12*
%TO.C,J6*%
X101410000Y-59230000D02*
X114230000Y-59230000D01*
X101410000Y-61830000D02*
X101410000Y-59230000D01*
X101410000Y-64430000D02*
X101410000Y-63100000D01*
X102740000Y-64430000D02*
X101410000Y-64430000D01*
X104010000Y-61830000D02*
X101410000Y-61830000D01*
X104010000Y-64430000D02*
X104010000Y-61830000D01*
X104010000Y-64430000D02*
X114230000Y-64430000D01*
X114230000Y-64430000D02*
X114230000Y-59230000D01*
%TO.C,J1*%
X133040000Y-52090000D02*
X133040000Y-59910000D01*
X133040000Y-53690000D02*
X133960000Y-53690000D01*
X133040000Y-59910000D02*
X139160000Y-59910000D01*
X133800000Y-56050000D02*
X133800000Y-57650000D01*
X133800000Y-57650000D02*
X134800000Y-57650000D01*
X133960000Y-52090000D02*
X133040000Y-52090000D01*
X133960000Y-53690000D02*
X133960000Y-52090000D01*
X134240000Y-53690000D02*
X133960000Y-53690000D01*
X134240000Y-53690000D02*
X134240000Y-52475000D01*
X134300000Y-57650000D02*
X134300000Y-59910000D01*
X134800000Y-56050000D02*
X133800000Y-56050000D01*
X134800000Y-57650000D02*
X134800000Y-56050000D01*
X134800000Y-57650000D02*
X134800000Y-59910000D01*
X135600000Y-55550000D02*
X136600000Y-55550000D01*
X135600000Y-59910000D02*
X135600000Y-55550000D01*
X136600000Y-55550000D02*
X136600000Y-59910000D01*
X137400000Y-56050000D02*
X138400000Y-56050000D01*
X137400000Y-57650000D02*
X137400000Y-56050000D01*
X138240000Y-52090000D02*
X138240000Y-53690000D01*
X138240000Y-53690000D02*
X137960000Y-53690000D01*
X138400000Y-56050000D02*
X138400000Y-57650000D01*
X138400000Y-57650000D02*
X137400000Y-57650000D01*
X139160000Y-52090000D02*
X138240000Y-52090000D01*
X139160000Y-53690000D02*
X138240000Y-53690000D01*
X139160000Y-59910000D02*
X139160000Y-52090000D01*
%TO.C,J3*%
X150640000Y-95940000D02*
X150640000Y-106060000D01*
X150640000Y-98500000D02*
X155000000Y-98500000D01*
X150640000Y-106060000D02*
X158460000Y-106060000D01*
X152900000Y-96700000D02*
X152900000Y-97700000D01*
X152900000Y-97200000D02*
X150640000Y-97200000D01*
X152900000Y-97700000D02*
X150640000Y-97700000D01*
X152900000Y-97700000D02*
X154500000Y-97700000D01*
X152900000Y-104300000D02*
X154500000Y-104300000D01*
X152900000Y-105300000D02*
X152900000Y-104300000D01*
X154500000Y-96700000D02*
X152900000Y-96700000D01*
X154500000Y-97700000D02*
X154500000Y-96700000D01*
X154500000Y-104300000D02*
X154500000Y-105300000D01*
X154500000Y-105300000D02*
X152900000Y-105300000D01*
X155000000Y-98500000D02*
X155000000Y-103500000D01*
X155000000Y-103500000D02*
X150640000Y-103500000D01*
X156860000Y-95940000D02*
X156860000Y-96860000D01*
X156860000Y-96860000D02*
X158460000Y-96860000D01*
X156860000Y-97140000D02*
X156860000Y-96860000D01*
X156860000Y-97140000D02*
X158075000Y-97140000D01*
X156860000Y-105140000D02*
X156860000Y-104860000D01*
X156860000Y-106060000D02*
X156860000Y-105140000D01*
X158460000Y-95940000D02*
X150640000Y-95940000D01*
X158460000Y-96860000D02*
X158460000Y-95940000D01*
X158460000Y-105140000D02*
X156860000Y-105140000D01*
X158460000Y-106060000D02*
X158460000Y-105140000D01*
%TO.C,J5*%
X124090000Y-52090000D02*
X124090000Y-59910000D01*
X124090000Y-53690000D02*
X125010000Y-53690000D01*
X124090000Y-59910000D02*
X132210000Y-59910000D01*
X124850000Y-56050000D02*
X124850000Y-57650000D01*
X124850000Y-57650000D02*
X125850000Y-57650000D01*
X125010000Y-52090000D02*
X124090000Y-52090000D01*
X125010000Y-53690000D02*
X125010000Y-52090000D01*
X125290000Y-53690000D02*
X125010000Y-53690000D01*
X125290000Y-53690000D02*
X125290000Y-52475000D01*
X125350000Y-57650000D02*
X125350000Y-59910000D01*
X125850000Y-56050000D02*
X124850000Y-56050000D01*
X125850000Y-57650000D02*
X125850000Y-56050000D01*
X125850000Y-57650000D02*
X125850000Y-59910000D01*
X126650000Y-55550000D02*
X129650000Y-55550000D01*
X126650000Y-59910000D02*
X126650000Y-55550000D01*
X129650000Y-55550000D02*
X129650000Y-59910000D01*
X130450000Y-56050000D02*
X131450000Y-56050000D01*
X130450000Y-57650000D02*
X130450000Y-56050000D01*
X131290000Y-52090000D02*
X131290000Y-53690000D01*
X131290000Y-53690000D02*
X131010000Y-53690000D01*
X131450000Y-56050000D02*
X131450000Y-57650000D01*
X131450000Y-57650000D02*
X130450000Y-57650000D01*
X132210000Y-52090000D02*
X131290000Y-52090000D01*
X132210000Y-53690000D02*
X131290000Y-53690000D01*
X132210000Y-59910000D02*
X132210000Y-52090000D01*
%TO.C,A1*%
X151372000Y-50727000D02*
X151372000Y-94167000D01*
X151372000Y-50727000D02*
X156452000Y-50727000D01*
X151372000Y-94167000D02*
X169412000Y-94167000D01*
X154042000Y-53397000D02*
X151372000Y-53397000D01*
X154042000Y-91497000D02*
X151372000Y-91497000D01*
X154042000Y-91497000D02*
X154042000Y-53397000D01*
X156452000Y-48187000D02*
X164332000Y-48187000D01*
X156452000Y-58607000D02*
X156452000Y-48187000D01*
X164332000Y-48187000D02*
X164332000Y-58607000D01*
X164332000Y-58607000D02*
X156452000Y-58607000D01*
X166742000Y-53397000D02*
X169412000Y-53397000D01*
X166742000Y-88957000D02*
X166742000Y-53397000D01*
X166742000Y-88957000D02*
X166742000Y-91497000D01*
X166742000Y-88957000D02*
X169412000Y-88957000D01*
X166742000Y-91497000D02*
X169412000Y-91497000D01*
X169412000Y-50727000D02*
X164332000Y-50727000D01*
X169412000Y-88957000D02*
X169412000Y-50727000D01*
X169412000Y-94167000D02*
X169412000Y-91497000D01*
%TD*%
M02*
