%TF.GenerationSoftware,KiCad,Pcbnew,8.0.3*%
%TF.CreationDate,2024-07-23T15:57:45+02:00*%
%TF.ProjectId,Ruehrplatte,52756568-7270-46c6-9174-74652e6b6963,rev?*%
%TF.SameCoordinates,Original*%
%TF.FileFunction,Copper,L1,Top*%
%TF.FilePolarity,Positive*%
%FSLAX46Y46*%
G04 Gerber Fmt 4.6, Leading zero omitted, Abs format (unit mm)*
G04 Created by KiCad (PCBNEW 8.0.3) date 2024-07-23 15:57:45*
%MOMM*%
%LPD*%
G01*
G04 APERTURE LIST*
G04 Aperture macros list*
%AMRoundRect*
0 Rectangle with rounded corners*
0 $1 Rounding radius*
0 $2 $3 $4 $5 $6 $7 $8 $9 X,Y pos of 4 corners*
0 Add a 4 corners polygon primitive as box body*
4,1,4,$2,$3,$4,$5,$6,$7,$8,$9,$2,$3,0*
0 Add four circle primitives for the rounded corners*
1,1,$1+$1,$2,$3*
1,1,$1+$1,$4,$5*
1,1,$1+$1,$6,$7*
1,1,$1+$1,$8,$9*
0 Add four rect primitives between the rounded corners*
20,1,$1+$1,$2,$3,$4,$5,0*
20,1,$1+$1,$4,$5,$6,$7,0*
20,1,$1+$1,$6,$7,$8,$9,0*
20,1,$1+$1,$8,$9,$2,$3,0*%
G04 Aperture macros list end*
%TA.AperFunction,ComponentPad*%
%ADD10R,3.000000X3.000000*%
%TD*%
%TA.AperFunction,ComponentPad*%
%ADD11C,3.000000*%
%TD*%
%TA.AperFunction,ComponentPad*%
%ADD12RoundRect,0.250000X-0.350000X-0.625000X0.350000X-0.625000X0.350000X0.625000X-0.350000X0.625000X0*%
%TD*%
%TA.AperFunction,ComponentPad*%
%ADD13O,1.200000X1.750000*%
%TD*%
%TA.AperFunction,ComponentPad*%
%ADD14R,1.700000X1.700000*%
%TD*%
%TA.AperFunction,ComponentPad*%
%ADD15O,1.700000X1.700000*%
%TD*%
%TA.AperFunction,ComponentPad*%
%ADD16R,1.524000X1.524000*%
%TD*%
%TA.AperFunction,ComponentPad*%
%ADD17C,1.524000*%
%TD*%
%TA.AperFunction,ComponentPad*%
%ADD18RoundRect,0.250000X-0.625000X0.350000X-0.625000X-0.350000X0.625000X-0.350000X0.625000X0.350000X0*%
%TD*%
%TA.AperFunction,ComponentPad*%
%ADD19O,1.750000X1.200000*%
%TD*%
%TA.AperFunction,ComponentPad*%
%ADD20R,1.600000X1.600000*%
%TD*%
%TA.AperFunction,ComponentPad*%
%ADD21O,1.600000X1.600000*%
%TD*%
%TA.AperFunction,ViaPad*%
%ADD22C,0.600000*%
%TD*%
%TA.AperFunction,Conductor*%
%ADD23C,0.200000*%
%TD*%
G04 APERTURE END LIST*
D10*
%TO.P,RV1,1,1*%
%TO.N,GND*%
X155168600Y-114808000D03*
D11*
%TO.P,RV1,2,2*%
%TO.N,Net-(A1-A0)*%
X160168600Y-114808000D03*
%TO.P,RV1,3,3*%
%TO.N,+5V*%
X165168600Y-114808000D03*
%TD*%
D12*
%TO.P,J2,1,Pin_1*%
%TO.N,Net-(A1-D5)*%
X103400000Y-66900000D03*
D13*
%TO.P,J2,2,Pin_2*%
%TO.N,Net-(A1-D6)*%
X105400000Y-66900000D03*
%TO.P,J2,3,Pin_3*%
%TO.N,Net-(A1-D7)*%
X107400000Y-66900000D03*
%TO.P,J2,4,Pin_4*%
%TO.N,+5V*%
X109400000Y-66900000D03*
%TO.P,J2,5,Pin_5*%
%TO.N,GND*%
X111400000Y-66900000D03*
%TD*%
D12*
%TO.P,J4,1,Pin_1*%
%TO.N,Net-(A1-D8)*%
X117200000Y-53550000D03*
D13*
%TO.P,J4,2,Pin_2*%
%TO.N,+5V*%
X119200000Y-53550000D03*
%TO.P,J4,3,Pin_3*%
%TO.N,GND*%
X121200000Y-53550000D03*
%TD*%
D14*
%TO.P,J7,1,Pin_1*%
%TO.N,+5V*%
X110360000Y-51820000D03*
D15*
%TO.P,J7,2,Pin_2*%
%TO.N,Net-(A1-3V3)*%
X112900000Y-51820000D03*
%TO.P,J7,3,Pin_3*%
%TO.N,Net-(A1-AREF)*%
X110360000Y-54360000D03*
%TO.P,J7,4,Pin_4*%
%TO.N,GND*%
X112900000Y-54360000D03*
%TO.P,J7,5,Pin_5*%
X110360000Y-56900000D03*
%TO.P,J7,6,Pin_6*%
%TO.N,Net-(J7-Pin_6)*%
X112900000Y-56900000D03*
%TD*%
D16*
%TO.P,U1,1,GND*%
%TO.N,GND*%
X149260000Y-68150000D03*
D17*
%TO.P,U1,2,VCC*%
%TO.N,+5V*%
X149260000Y-65610000D03*
%TO.P,U1,3,EN*%
%TO.N,Net-(A1-D2)*%
X149260000Y-63070000D03*
%TO.P,U1,4,PH*%
%TO.N,Net-(A1-D3)*%
X149260000Y-60530000D03*
%TO.P,U1,5,SLEEP*%
%TO.N,Net-(A1-D4)*%
X149260000Y-57990000D03*
D16*
%TO.P,U1,6,GND*%
%TO.N,GND*%
X141640000Y-68150000D03*
D17*
%TO.P,U1,7,VIN*%
%TO.N,+5V*%
X141640000Y-65610000D03*
%TO.P,U1,8,O2*%
%TO.N,Net-(J1-Pin_1)*%
X141640000Y-63070000D03*
%TO.P,U1,9,O1*%
%TO.N,Net-(J1-Pin_2)*%
X141640000Y-60530000D03*
%TO.P,U1,10,VM*%
%TO.N,unconnected-(U1-VM-Pad10)*%
X141640000Y-57990000D03*
%TD*%
D14*
%TO.P,J6,1,Pin_1*%
%TO.N,Net-(A1-D13)*%
X102740000Y-63100000D03*
D15*
%TO.P,J6,2,Pin_2*%
%TO.N,Net-(A1-D12)*%
X102740000Y-60560000D03*
%TO.P,J6,3,Pin_3*%
%TO.N,Net-(A1-D11)*%
X105280000Y-63100000D03*
%TO.P,J6,4,Pin_4*%
%TO.N,Net-(A1-D10)*%
X105280000Y-60560000D03*
%TO.P,J6,5,Pin_5*%
%TO.N,Net-(A1-D9)*%
X107820000Y-63100000D03*
%TO.P,J6,6,Pin_6*%
%TO.N,Net-(A1-A7)*%
X107820000Y-60560000D03*
%TO.P,J6,7,Pin_7*%
%TO.N,Net-(A1-A6)*%
X110360000Y-63100000D03*
%TO.P,J6,8,Pin_8*%
%TO.N,Net-(A1-A3)*%
X110360000Y-60560000D03*
%TO.P,J6,9,Pin_9*%
%TO.N,Net-(A1-A2)*%
X112900000Y-63100000D03*
%TO.P,J6,10,Pin_10*%
%TO.N,Net-(A1-A1)*%
X112900000Y-60560000D03*
%TD*%
D12*
%TO.P,J1,1,Pin_1*%
%TO.N,Net-(J1-Pin_1)*%
X135100000Y-53550000D03*
D13*
%TO.P,J1,2,Pin_2*%
%TO.N,Net-(J1-Pin_2)*%
X137100000Y-53550000D03*
%TD*%
D18*
%TO.P,J3,1,Pin_1*%
%TO.N,GND*%
X157000000Y-98000000D03*
D19*
%TO.P,J3,2,Pin_2*%
%TO.N,+5V*%
X157000000Y-100000000D03*
%TO.P,J3,3,Pin_3*%
%TO.N,Net-(A1-A5)*%
X157000000Y-102000000D03*
%TO.P,J3,4,Pin_4*%
%TO.N,Net-(A1-A4)*%
X157000000Y-104000000D03*
%TD*%
D12*
%TO.P,J5,1,Pin_1*%
%TO.N,GND*%
X126150000Y-53550000D03*
D13*
%TO.P,J5,2,Pin_2*%
%TO.N,Net-(A1-A0)*%
X128150000Y-53550000D03*
%TO.P,J5,3,Pin_3*%
%TO.N,+5V*%
X130150000Y-53550000D03*
%TD*%
D20*
%TO.P,A1,1,D1/TX*%
%TO.N,unconnected-(A1-D1{slash}TX-Pad1)*%
X168012000Y-90227000D03*
D21*
%TO.P,A1,2,D0/RX*%
%TO.N,unconnected-(A1-D0{slash}RX-Pad2)*%
X168012000Y-87687000D03*
%TO.P,A1,3,~{RESET}*%
%TO.N,Net-(J7-Pin_6)*%
X168012000Y-85147000D03*
%TO.P,A1,4,GND*%
%TO.N,GND*%
X168012000Y-82607000D03*
%TO.P,A1,5,D2*%
%TO.N,Net-(A1-D2)*%
X168012000Y-80067000D03*
%TO.P,A1,6,D3*%
%TO.N,Net-(A1-D3)*%
X168012000Y-77527000D03*
%TO.P,A1,7,D4*%
%TO.N,Net-(A1-D4)*%
X168012000Y-74987000D03*
%TO.P,A1,8,D5*%
%TO.N,Net-(A1-D5)*%
X168012000Y-72447000D03*
%TO.P,A1,9,D6*%
%TO.N,Net-(A1-D6)*%
X168012000Y-69907000D03*
%TO.P,A1,10,D7*%
%TO.N,Net-(A1-D7)*%
X168012000Y-67367000D03*
%TO.P,A1,11,D8*%
%TO.N,Net-(A1-D8)*%
X168012000Y-64827000D03*
%TO.P,A1,12,D9*%
%TO.N,Net-(A1-D9)*%
X168012000Y-62287000D03*
%TO.P,A1,13,D10*%
%TO.N,Net-(A1-D10)*%
X168012000Y-59747000D03*
%TO.P,A1,14,D11*%
%TO.N,Net-(A1-D11)*%
X168012000Y-57207000D03*
%TO.P,A1,15,D12*%
%TO.N,Net-(A1-D12)*%
X168012000Y-54667000D03*
%TO.P,A1,16,D13*%
%TO.N,Net-(A1-D13)*%
X152772000Y-54667000D03*
%TO.P,A1,17,3V3*%
%TO.N,Net-(A1-3V3)*%
X152772000Y-57207000D03*
%TO.P,A1,18,AREF*%
%TO.N,Net-(A1-AREF)*%
X152772000Y-59747000D03*
%TO.P,A1,19,A0*%
%TO.N,Net-(A1-A0)*%
X152772000Y-62287000D03*
%TO.P,A1,20,A1*%
%TO.N,Net-(A1-A1)*%
X152772000Y-64827000D03*
%TO.P,A1,21,A2*%
%TO.N,Net-(A1-A2)*%
X152772000Y-67367000D03*
%TO.P,A1,22,A3*%
%TO.N,Net-(A1-A3)*%
X152772000Y-69907000D03*
%TO.P,A1,23,A4*%
%TO.N,Net-(A1-A4)*%
X152772000Y-72447000D03*
%TO.P,A1,24,A5*%
%TO.N,Net-(A1-A5)*%
X152772000Y-74987000D03*
%TO.P,A1,25,A6*%
%TO.N,Net-(A1-A6)*%
X152772000Y-77527000D03*
%TO.P,A1,26,A7*%
%TO.N,Net-(A1-A7)*%
X152772000Y-80067000D03*
%TO.P,A1,27,+5V*%
%TO.N,+5V*%
X152772000Y-82607000D03*
%TO.P,A1,28,~{RESET}*%
%TO.N,Net-(J7-Pin_6)*%
X152772000Y-85147000D03*
%TO.P,A1,29,GND*%
%TO.N,GND*%
X152772000Y-87687000D03*
%TO.P,A1,30,VIN*%
%TO.N,unconnected-(A1-VIN-Pad30)*%
X152772000Y-90227000D03*
%TD*%
D22*
%TO.N,+5V*%
X138912842Y-62600000D03*
%TO.N,GND*%
X148132800Y-53721000D03*
X147980400Y-61315600D03*
X121234200Y-55981600D03*
X145288000Y-63500000D03*
X162991800Y-53340000D03*
X108178600Y-55727600D03*
X159639000Y-62128400D03*
X146024600Y-71704200D03*
X131800600Y-60680600D03*
X165100000Y-59055000D03*
X145135600Y-59182000D03*
X122351800Y-61264800D03*
X140817600Y-54102000D03*
X115493800Y-53238400D03*
X150164800Y-72186800D03*
X162636200Y-72212200D03*
X140182600Y-58724800D03*
X137972800Y-62600000D03*
X140308335Y-65141400D03*
X154051000Y-68605400D03*
X132638800Y-54813200D03*
%TO.N,Net-(A1-A0)*%
X136970000Y-62000000D03*
%TO.N,Net-(A1-D5)*%
X139981938Y-56583846D03*
%TO.N,Net-(A1-A1)*%
X130150785Y-63925000D03*
X132695265Y-66474735D03*
%TO.N,Net-(A1-A7)*%
X148940000Y-69920000D03*
X131667099Y-62635941D03*
%TO.N,Net-(A1-D13)*%
X139282387Y-56195735D03*
%TO.N,Net-(A1-A2)*%
X131676000Y-67152529D03*
X128325736Y-63924264D03*
%TO.N,Net-(A1-D12)*%
X153626470Y-51339838D03*
%TO.N,Net-(A1-A3)*%
X134200265Y-67979735D03*
X130818571Y-63484472D03*
%TO.N,Net-(A1-D10)*%
X154426473Y-52090000D03*
%TO.N,Net-(A1-A6)*%
X129291520Y-63925000D03*
X147093023Y-69870000D03*
%TO.N,Net-(A1-D9)*%
X163253235Y-60916765D03*
%TO.N,Net-(A1-D11)*%
X158316765Y-56823235D03*
%TO.N,Net-(J7-Pin_6)*%
X114860000Y-56940000D03*
X147826247Y-70684777D03*
X156240000Y-85130000D03*
%TO.N,Net-(A1-3V3)*%
X136316953Y-55767052D03*
%TO.N,Net-(A1-AREF)*%
X135751266Y-56332739D03*
%TD*%
D23*
%TO.N,+5V*%
X149260000Y-65610000D02*
X141640000Y-65610000D01*
X138912842Y-62600000D02*
X138912842Y-62882842D01*
X138912842Y-62882842D02*
X141640000Y-65610000D01*
%TO.N,GND*%
X154051000Y-68605400D02*
X149715400Y-68605400D01*
X149260000Y-68150000D02*
X141640000Y-68150000D01*
X149715400Y-68605400D02*
X149260000Y-68150000D01*
X137972800Y-62600000D02*
X138064314Y-62600000D01*
X138064314Y-62600000D02*
X140308335Y-64844021D01*
X140308335Y-64844021D02*
X140308335Y-65141400D01*
%TO.N,Net-(A1-D4)*%
X153872000Y-60847000D02*
X168012000Y-74987000D01*
X153872000Y-59155400D02*
X153872000Y-60847000D01*
X153314400Y-58597800D02*
X153872000Y-59155400D01*
X149867800Y-58597800D02*
X153314400Y-58597800D01*
X149260000Y-57990000D02*
X149867800Y-58597800D01*
%TO.N,Net-(A1-A0)*%
X159220000Y-66760686D02*
X154746314Y-62287000D01*
X152485000Y-62000000D02*
X152772000Y-62287000D01*
X159207200Y-102358486D02*
X159220000Y-102345686D01*
X159207200Y-113207200D02*
X159207200Y-102358486D01*
X136970000Y-62000000D02*
X152485000Y-62000000D01*
X161000000Y-115000000D02*
X159207200Y-113207200D01*
X159220000Y-102345686D02*
X159220000Y-66760686D01*
X154746314Y-62287000D02*
X152772000Y-62287000D01*
%TO.N,Net-(A1-A5)*%
X154746314Y-74987000D02*
X152772000Y-74987000D01*
X158420000Y-100580000D02*
X158420000Y-78660686D01*
X158420000Y-78660686D02*
X154746314Y-74987000D01*
X157000000Y-102000000D02*
X158420000Y-100580000D01*
%TO.N,Net-(A1-D8)*%
X153924838Y-50739838D02*
X168012000Y-64827000D01*
X135656909Y-55012881D02*
X137353968Y-55012881D01*
X137353968Y-55012881D02*
X141627011Y-50739838D01*
X141627011Y-50739838D02*
X153924838Y-50739838D01*
X117200000Y-53550000D02*
X120565200Y-56915200D01*
X133754590Y-56915200D02*
X135656909Y-55012881D01*
X120565200Y-56915200D02*
X133754590Y-56915200D01*
%TO.N,Net-(A1-A4)*%
X157000000Y-104000000D02*
X158820000Y-102180000D01*
X158820000Y-78495000D02*
X152772000Y-72447000D01*
X158820000Y-102180000D02*
X158820000Y-78495000D01*
%TO.N,Net-(A1-D6)*%
X166912000Y-66832686D02*
X166912000Y-68807000D01*
X156159314Y-56080000D02*
X166912000Y-66832686D01*
X151490000Y-56910000D02*
X152320000Y-56080000D01*
X129490000Y-68490000D02*
X141070000Y-56910000D01*
X105400000Y-66900000D02*
X105400000Y-67623974D01*
X106266026Y-68490000D02*
X129490000Y-68490000D01*
X166912000Y-68807000D02*
X168012000Y-69907000D01*
X105400000Y-67623974D02*
X106266026Y-68490000D01*
X141070000Y-56910000D02*
X151490000Y-56910000D01*
X152320000Y-56080000D02*
X156159314Y-56080000D01*
%TO.N,Net-(A1-D7)*%
X152393365Y-53490000D02*
X154135000Y-53490000D01*
X129324314Y-68090000D02*
X140904314Y-56510000D01*
X149373365Y-56510000D02*
X152393365Y-53490000D01*
X140904314Y-56510000D02*
X149373365Y-56510000D01*
X154135000Y-53490000D02*
X168012000Y-67367000D01*
X113350000Y-68090000D02*
X129324314Y-68090000D01*
X113335000Y-68075000D02*
X113350000Y-68090000D01*
X107400000Y-66900000D02*
X108575000Y-68075000D01*
X108575000Y-68075000D02*
X113335000Y-68075000D01*
%TO.N,Net-(A1-D5)*%
X131123628Y-65725000D02*
X104575000Y-65725000D01*
X104575000Y-65725000D02*
X103400000Y-66900000D01*
X139981938Y-56866690D02*
X131123628Y-65725000D01*
X139981938Y-56583846D02*
X139981938Y-56866690D01*
%TO.N,Net-(A1-A1)*%
X132900530Y-66680000D02*
X150919000Y-66680000D01*
X127190000Y-63325000D02*
X127590736Y-62924264D01*
X129150049Y-62924264D02*
X130150785Y-63925000D01*
X132695265Y-66474735D02*
X132900530Y-66680000D01*
X115665000Y-63325000D02*
X127190000Y-63325000D01*
X127590736Y-62924264D02*
X129150049Y-62924264D01*
X112900000Y-60560000D02*
X115665000Y-63325000D01*
X150919000Y-66680000D02*
X152772000Y-64827000D01*
%TO.N,Net-(A1-A7)*%
X149965343Y-74154657D02*
X148940000Y-73129314D01*
X152772000Y-80067000D02*
X153872000Y-78967000D01*
X128041158Y-59010000D02*
X109370000Y-59010000D01*
X148940000Y-73129314D02*
X148940000Y-69920000D01*
X109370000Y-59010000D02*
X107820000Y-60560000D01*
X153872000Y-77019000D02*
X152940000Y-76087000D01*
X153872000Y-78967000D02*
X153872000Y-77019000D01*
X152940000Y-76087000D02*
X151897686Y-76087000D01*
X151897686Y-76087000D02*
X149965343Y-74154657D01*
X131667099Y-62635941D02*
X128041158Y-59010000D01*
%TO.N,Net-(A1-D13)*%
X130957942Y-65325000D02*
X104965000Y-65325000D01*
X104965000Y-65325000D02*
X102740000Y-63100000D01*
X139282387Y-56195735D02*
X139282387Y-57000555D01*
X139282387Y-57000555D02*
X130957942Y-65325000D01*
%TO.N,Net-(A1-A2)*%
X128125000Y-64125000D02*
X113925000Y-64125000D01*
X113925000Y-64125000D02*
X112900000Y-63100000D01*
X131676000Y-67152529D02*
X131748529Y-67080000D01*
X128325736Y-63924264D02*
X128125000Y-64125000D01*
X152485000Y-67080000D02*
X152772000Y-67367000D01*
X131748529Y-67080000D02*
X152485000Y-67080000D01*
%TO.N,Net-(A1-D12)*%
X141592697Y-51339838D02*
X153626470Y-51339838D01*
X134817335Y-58115200D02*
X137753968Y-55178567D01*
X105184800Y-58115200D02*
X134817335Y-58115200D01*
X102740000Y-60560000D02*
X105184800Y-58115200D01*
X137753968Y-55178567D02*
X141592697Y-51339838D01*
%TO.N,Net-(A1-A3)*%
X152135000Y-69270000D02*
X152772000Y-69907000D01*
X110360000Y-60560000D02*
X111510000Y-59410000D01*
X139590018Y-68374018D02*
X140486000Y-69270000D01*
X134594548Y-68374018D02*
X139590018Y-68374018D01*
X140486000Y-69270000D02*
X152135000Y-69270000D01*
X126470000Y-62925000D02*
X126870736Y-62524264D01*
X113376346Y-59410000D02*
X116891346Y-62925000D01*
X116960000Y-62925000D02*
X126470000Y-62925000D01*
X129858363Y-62524264D02*
X130818571Y-63484472D01*
X134200265Y-67979735D02*
X134594548Y-68374018D01*
X111510000Y-59410000D02*
X113376346Y-59410000D01*
X126870736Y-62524264D02*
X129858363Y-62524264D01*
X116891346Y-62925000D02*
X116960000Y-62925000D01*
%TO.N,Net-(A1-D10)*%
X141558383Y-51939838D02*
X154276311Y-51939838D01*
X154276311Y-51939838D02*
X154426473Y-52090000D01*
X107230000Y-58610000D02*
X134888221Y-58610000D01*
X134888221Y-58610000D02*
X138125711Y-55372510D01*
X138125711Y-55372510D02*
X141558383Y-51939838D01*
X105280000Y-60560000D02*
X107230000Y-58610000D01*
%TO.N,Net-(A1-A6)*%
X147093023Y-69870000D02*
X147860000Y-69870000D01*
X148420000Y-70939553D02*
X148420000Y-73175000D01*
X115151346Y-63725000D02*
X113376346Y-61950000D01*
X127676471Y-63725000D02*
X115151346Y-63725000D01*
X128077207Y-63324264D02*
X127676471Y-63725000D01*
X113376346Y-61950000D02*
X111510000Y-61950000D01*
X147860000Y-69870000D02*
X148426247Y-70436247D01*
X148426247Y-70933306D02*
X148420000Y-70939553D01*
X128694264Y-63324264D02*
X128077207Y-63324264D01*
X129291520Y-63925000D02*
X129291520Y-63921520D01*
X129291520Y-63921520D02*
X128694264Y-63324264D01*
X148426247Y-70436247D02*
X148426247Y-70933306D01*
X148420000Y-73175000D02*
X152772000Y-77527000D01*
X111510000Y-61950000D02*
X110360000Y-63100000D01*
%TO.N,Net-(A1-D9)*%
X140515686Y-55710000D02*
X149041993Y-55710000D01*
X138280000Y-56710000D02*
X138282387Y-56707613D01*
X149041993Y-55710000D02*
X152061993Y-52690000D01*
X163253235Y-60633921D02*
X163253235Y-60916765D01*
X152061993Y-52690000D02*
X155309314Y-52690000D01*
X130626570Y-64525000D02*
X138280000Y-56871570D01*
X138868172Y-55195735D02*
X140001421Y-55195735D01*
X138282387Y-56707613D02*
X138282387Y-55781520D01*
X140001421Y-55195735D02*
X140515686Y-55710000D01*
X109245000Y-64525000D02*
X130626570Y-64525000D01*
X138282387Y-55781520D02*
X138868172Y-55195735D01*
X107820000Y-63100000D02*
X109245000Y-64525000D01*
X155309314Y-52690000D02*
X163253235Y-60633921D01*
X138280000Y-56871570D02*
X138280000Y-56710000D01*
%TO.N,Net-(A1-D11)*%
X154583530Y-53090000D02*
X158316765Y-56823235D01*
X149207679Y-56110000D02*
X152227679Y-53090000D01*
X130792256Y-64925000D02*
X138682387Y-57034869D01*
X105280000Y-63100000D02*
X107105000Y-64925000D01*
X140350000Y-56110000D02*
X149207679Y-56110000D01*
X152227679Y-53090000D02*
X154583530Y-53090000D01*
X107105000Y-64925000D02*
X130792256Y-64925000D01*
X139033858Y-55595735D02*
X139835735Y-55595735D01*
X139835735Y-55595735D02*
X140350000Y-56110000D01*
X138682387Y-57034869D02*
X138682387Y-55947206D01*
X138682387Y-55947206D02*
X139033858Y-55595735D01*
%TO.N,Net-(J7-Pin_6)*%
X112940000Y-56940000D02*
X112900000Y-56900000D01*
X147826247Y-73146933D02*
X147826247Y-70684777D01*
X151638000Y-83043809D02*
X151638000Y-76958686D01*
X152789000Y-85130000D02*
X152772000Y-85147000D01*
X114860000Y-56940000D02*
X112940000Y-56940000D01*
X152772000Y-85147000D02*
X152772000Y-84177809D01*
X151638000Y-76958686D02*
X147826247Y-73146933D01*
X152772000Y-84177809D02*
X151638000Y-83043809D01*
X156240000Y-85130000D02*
X152789000Y-85130000D01*
%TO.N,Net-(A1-3V3)*%
X112900000Y-52092400D02*
X115722400Y-54914800D01*
X112900000Y-51820000D02*
X112900000Y-52092400D01*
X133920276Y-57315200D02*
X135502737Y-55732739D01*
X136282640Y-55732739D02*
X136316953Y-55767052D01*
X115722400Y-56381114D02*
X116656486Y-57315200D01*
X135502737Y-55732739D02*
X136282640Y-55732739D01*
X116656486Y-57315200D02*
X133920276Y-57315200D01*
X115722400Y-54914800D02*
X115722400Y-56381114D01*
%TO.N,Net-(A1-AREF)*%
X110360000Y-54360000D02*
X111753000Y-55753000D01*
X112423654Y-55750000D02*
X114525600Y-55750000D01*
X111753000Y-55753000D02*
X112420654Y-55753000D01*
X116490800Y-57715200D02*
X134368805Y-57715200D01*
X112420654Y-55753000D02*
X112423654Y-55750000D01*
X114525600Y-55750000D02*
X116490800Y-57715200D01*
X134368805Y-57715200D02*
X135751266Y-56332739D01*
%TD*%
%TA.AperFunction,Conductor*%
%TO.N,GND*%
G36*
X160025703Y-67850384D02*
G01*
X160032180Y-67856415D01*
X163392119Y-71216355D01*
X166720058Y-74544294D01*
X166753543Y-74605617D01*
X166752152Y-74664068D01*
X166726366Y-74760302D01*
X166726364Y-74760313D01*
X166706532Y-74986998D01*
X166706532Y-74987001D01*
X166726364Y-75213686D01*
X166726366Y-75213697D01*
X166785258Y-75433488D01*
X166785261Y-75433497D01*
X166881431Y-75639732D01*
X166881432Y-75639734D01*
X167011954Y-75826141D01*
X167172858Y-75987045D01*
X167172861Y-75987047D01*
X167359266Y-76117568D01*
X167417275Y-76144618D01*
X167469714Y-76190791D01*
X167488866Y-76257984D01*
X167468650Y-76324865D01*
X167417275Y-76369382D01*
X167359267Y-76396431D01*
X167359265Y-76396432D01*
X167172858Y-76526954D01*
X167011954Y-76687858D01*
X166881432Y-76874265D01*
X166881431Y-76874267D01*
X166785261Y-77080502D01*
X166785258Y-77080511D01*
X166726366Y-77300302D01*
X166726364Y-77300313D01*
X166706532Y-77526998D01*
X166706532Y-77527001D01*
X166726364Y-77753686D01*
X166726366Y-77753697D01*
X166785258Y-77973488D01*
X166785261Y-77973497D01*
X166881431Y-78179732D01*
X166881432Y-78179734D01*
X167011954Y-78366141D01*
X167172858Y-78527045D01*
X167172861Y-78527047D01*
X167359266Y-78657568D01*
X167417275Y-78684618D01*
X167469714Y-78730791D01*
X167488866Y-78797984D01*
X167468650Y-78864865D01*
X167417275Y-78909382D01*
X167359267Y-78936431D01*
X167359265Y-78936432D01*
X167172858Y-79066954D01*
X167011954Y-79227858D01*
X166881432Y-79414265D01*
X166881431Y-79414267D01*
X166785261Y-79620502D01*
X166785258Y-79620511D01*
X166726366Y-79840302D01*
X166726364Y-79840313D01*
X166706532Y-80066998D01*
X166706532Y-80067001D01*
X166726364Y-80293686D01*
X166726366Y-80293697D01*
X166785258Y-80513488D01*
X166785261Y-80513497D01*
X166881431Y-80719732D01*
X166881432Y-80719734D01*
X167011954Y-80906141D01*
X167172858Y-81067045D01*
X167172861Y-81067047D01*
X167359266Y-81197568D01*
X167417865Y-81224893D01*
X167470305Y-81271065D01*
X167489457Y-81338258D01*
X167469242Y-81405139D01*
X167417867Y-81449657D01*
X167359515Y-81476867D01*
X167173179Y-81607342D01*
X167012342Y-81768179D01*
X166881865Y-81954517D01*
X166785734Y-82160673D01*
X166785730Y-82160682D01*
X166733127Y-82356999D01*
X166733128Y-82357000D01*
X167578988Y-82357000D01*
X167546075Y-82414007D01*
X167512000Y-82541174D01*
X167512000Y-82672826D01*
X167546075Y-82799993D01*
X167578988Y-82857000D01*
X166733128Y-82857000D01*
X166785730Y-83053317D01*
X166785734Y-83053326D01*
X166881865Y-83259482D01*
X167012342Y-83445820D01*
X167173179Y-83606657D01*
X167359518Y-83737134D01*
X167359520Y-83737135D01*
X167417865Y-83764342D01*
X167470305Y-83810514D01*
X167489457Y-83877707D01*
X167469242Y-83944589D01*
X167417867Y-83989105D01*
X167395688Y-83999448D01*
X167359264Y-84016433D01*
X167172858Y-84146954D01*
X167011954Y-84307858D01*
X166881432Y-84494265D01*
X166881431Y-84494267D01*
X166785261Y-84700502D01*
X166785258Y-84700511D01*
X166726366Y-84920302D01*
X166726364Y-84920313D01*
X166706532Y-85146998D01*
X166706532Y-85147001D01*
X166726364Y-85373686D01*
X166726366Y-85373697D01*
X166785258Y-85593488D01*
X166785261Y-85593497D01*
X166881431Y-85799732D01*
X166881432Y-85799734D01*
X167011954Y-85986141D01*
X167172858Y-86147045D01*
X167172861Y-86147047D01*
X167359266Y-86277568D01*
X167417275Y-86304618D01*
X167469714Y-86350791D01*
X167488866Y-86417984D01*
X167468650Y-86484865D01*
X167417275Y-86529382D01*
X167359267Y-86556431D01*
X167359265Y-86556432D01*
X167172858Y-86686954D01*
X167011954Y-86847858D01*
X166881432Y-87034265D01*
X166881431Y-87034267D01*
X166785261Y-87240502D01*
X166785258Y-87240511D01*
X166726366Y-87460302D01*
X166726364Y-87460313D01*
X166706532Y-87686998D01*
X166706532Y-87687001D01*
X166726364Y-87913686D01*
X166726366Y-87913697D01*
X166785258Y-88133488D01*
X166785261Y-88133497D01*
X166881431Y-88339732D01*
X166881432Y-88339734D01*
X167011954Y-88526141D01*
X167172858Y-88687045D01*
X167197462Y-88704273D01*
X167241087Y-88758849D01*
X167248281Y-88828348D01*
X167216758Y-88890703D01*
X167156529Y-88926117D01*
X167139593Y-88929138D01*
X167104516Y-88932908D01*
X166969671Y-88983202D01*
X166969664Y-88983206D01*
X166854455Y-89069452D01*
X166854452Y-89069455D01*
X166768206Y-89184664D01*
X166768202Y-89184671D01*
X166717908Y-89319517D01*
X166711501Y-89379116D01*
X166711500Y-89379135D01*
X166711500Y-91074870D01*
X166711501Y-91074876D01*
X166717908Y-91134483D01*
X166768202Y-91269328D01*
X166768206Y-91269335D01*
X166854452Y-91384544D01*
X166854455Y-91384547D01*
X166969664Y-91470793D01*
X166969671Y-91470797D01*
X167104517Y-91521091D01*
X167104516Y-91521091D01*
X167111444Y-91521835D01*
X167164127Y-91527500D01*
X168859872Y-91527499D01*
X168919483Y-91521091D01*
X169054331Y-91470796D01*
X169169546Y-91384546D01*
X169255796Y-91269331D01*
X169259318Y-91259889D01*
X169301189Y-91203955D01*
X169366653Y-91179538D01*
X169434926Y-91194389D01*
X169484332Y-91243794D01*
X169499500Y-91303222D01*
X169499500Y-116995572D01*
X169499184Y-117004419D01*
X169484869Y-117204557D01*
X169482351Y-117222068D01*
X169440646Y-117413787D01*
X169435662Y-117430763D01*
X169367090Y-117614609D01*
X169359740Y-117630701D01*
X169265711Y-117802904D01*
X169256146Y-117817789D01*
X169138558Y-117974867D01*
X169126972Y-117988237D01*
X168988237Y-118126972D01*
X168974867Y-118138558D01*
X168817789Y-118256146D01*
X168802904Y-118265711D01*
X168630701Y-118359740D01*
X168614609Y-118367090D01*
X168430763Y-118435662D01*
X168413787Y-118440646D01*
X168222068Y-118482351D01*
X168204557Y-118484869D01*
X168023779Y-118497799D01*
X168004417Y-118499184D01*
X167995572Y-118499500D01*
X151372240Y-118499500D01*
X151305201Y-118479815D01*
X151259446Y-118427011D01*
X151248241Y-118375949D01*
X151248182Y-118359740D01*
X151229705Y-113260155D01*
X153168600Y-113260155D01*
X153168600Y-114558000D01*
X154620118Y-114558000D01*
X154609489Y-114576409D01*
X154568600Y-114729009D01*
X154568600Y-114886991D01*
X154609489Y-115039591D01*
X154620118Y-115058000D01*
X153168600Y-115058000D01*
X153168600Y-116355844D01*
X153175001Y-116415372D01*
X153175003Y-116415379D01*
X153225245Y-116550086D01*
X153225249Y-116550093D01*
X153311409Y-116665187D01*
X153311412Y-116665190D01*
X153426506Y-116751350D01*
X153426513Y-116751354D01*
X153561220Y-116801596D01*
X153561227Y-116801598D01*
X153620755Y-116807999D01*
X153620772Y-116808000D01*
X154918600Y-116808000D01*
X154918600Y-115356482D01*
X154937009Y-115367111D01*
X155089609Y-115408000D01*
X155247591Y-115408000D01*
X155400191Y-115367111D01*
X155418600Y-115356482D01*
X155418600Y-116808000D01*
X156716428Y-116808000D01*
X156716444Y-116807999D01*
X156775972Y-116801598D01*
X156775979Y-116801596D01*
X156910686Y-116751354D01*
X156910693Y-116751350D01*
X157025787Y-116665190D01*
X157025790Y-116665187D01*
X157111950Y-116550093D01*
X157111954Y-116550086D01*
X157162196Y-116415379D01*
X157162198Y-116415372D01*
X157168599Y-116355844D01*
X157168600Y-116355827D01*
X157168600Y-115058000D01*
X155717082Y-115058000D01*
X155727711Y-115039591D01*
X155768600Y-114886991D01*
X155768600Y-114729009D01*
X155727711Y-114576409D01*
X155717082Y-114558000D01*
X157168600Y-114558000D01*
X157168600Y-113260172D01*
X157168599Y-113260155D01*
X157162198Y-113200627D01*
X157162196Y-113200620D01*
X157111954Y-113065913D01*
X157111950Y-113065906D01*
X157025790Y-112950812D01*
X157025787Y-112950809D01*
X156910693Y-112864649D01*
X156910686Y-112864645D01*
X156775979Y-112814403D01*
X156775972Y-112814401D01*
X156716444Y-112808000D01*
X155418600Y-112808000D01*
X155418600Y-114259517D01*
X155400191Y-114248889D01*
X155247591Y-114208000D01*
X155089609Y-114208000D01*
X154937009Y-114248889D01*
X154918600Y-114259517D01*
X154918600Y-112808000D01*
X153620755Y-112808000D01*
X153561227Y-112814401D01*
X153561220Y-112814403D01*
X153426513Y-112864645D01*
X153426506Y-112864649D01*
X153311412Y-112950809D01*
X153311409Y-112950812D01*
X153225249Y-113065906D01*
X153225245Y-113065913D01*
X153175003Y-113200620D01*
X153175001Y-113200627D01*
X153168600Y-113260155D01*
X151229705Y-113260155D01*
X151125500Y-84499087D01*
X151125500Y-84116415D01*
X151103254Y-83663593D01*
X151119626Y-83595671D01*
X151170121Y-83547380D01*
X151238708Y-83534055D01*
X151303612Y-83559927D01*
X151314786Y-83569830D01*
X151824703Y-84079747D01*
X151858188Y-84141070D01*
X151853204Y-84210762D01*
X151824704Y-84255108D01*
X151771954Y-84307858D01*
X151641432Y-84494265D01*
X151641431Y-84494267D01*
X151545261Y-84700502D01*
X151545258Y-84700511D01*
X151486366Y-84920302D01*
X151486364Y-84920313D01*
X151466532Y-85146998D01*
X151466532Y-85147001D01*
X151486364Y-85373686D01*
X151486366Y-85373697D01*
X151545258Y-85593488D01*
X151545261Y-85593497D01*
X151641431Y-85799732D01*
X151641432Y-85799734D01*
X151771954Y-85986141D01*
X151932858Y-86147045D01*
X151932861Y-86147047D01*
X152119266Y-86277568D01*
X152177865Y-86304893D01*
X152230305Y-86351065D01*
X152249457Y-86418258D01*
X152229242Y-86485139D01*
X152177867Y-86529657D01*
X152119515Y-86556867D01*
X151933179Y-86687342D01*
X151772342Y-86848179D01*
X151641865Y-87034517D01*
X151545734Y-87240673D01*
X151545730Y-87240682D01*
X151493127Y-87436999D01*
X151493128Y-87437000D01*
X152338988Y-87437000D01*
X152306075Y-87494007D01*
X152272000Y-87621174D01*
X152272000Y-87752826D01*
X152306075Y-87879993D01*
X152338988Y-87937000D01*
X151493128Y-87937000D01*
X151545730Y-88133317D01*
X151545734Y-88133326D01*
X151641865Y-88339482D01*
X151772342Y-88525820D01*
X151933179Y-88686657D01*
X152119518Y-88817134D01*
X152119520Y-88817135D01*
X152177865Y-88844342D01*
X152230305Y-88890514D01*
X152249457Y-88957707D01*
X152229242Y-89024589D01*
X152177867Y-89069105D01*
X152119268Y-89096431D01*
X152119264Y-89096433D01*
X151932858Y-89226954D01*
X151771954Y-89387858D01*
X151641432Y-89574265D01*
X151641431Y-89574267D01*
X151545261Y-89780502D01*
X151545258Y-89780511D01*
X151486366Y-90000302D01*
X151486364Y-90000313D01*
X151466532Y-90226998D01*
X151466532Y-90227001D01*
X151486364Y-90453686D01*
X151486366Y-90453697D01*
X151545258Y-90673488D01*
X151545261Y-90673497D01*
X151641431Y-90879732D01*
X151641432Y-90879734D01*
X151771954Y-91066141D01*
X151932858Y-91227045D01*
X151932861Y-91227047D01*
X152119266Y-91357568D01*
X152325504Y-91453739D01*
X152545308Y-91512635D01*
X152707230Y-91526801D01*
X152771998Y-91532468D01*
X152772000Y-91532468D01*
X152772002Y-91532468D01*
X152828807Y-91527498D01*
X152998692Y-91512635D01*
X153218496Y-91453739D01*
X153424734Y-91357568D01*
X153611139Y-91227047D01*
X153772047Y-91066139D01*
X153902568Y-90879734D01*
X153998739Y-90673496D01*
X154057635Y-90453692D01*
X154077468Y-90227000D01*
X154057635Y-90000308D01*
X153998739Y-89780504D01*
X153902568Y-89574266D01*
X153772047Y-89387861D01*
X153772045Y-89387858D01*
X153611141Y-89226954D01*
X153424734Y-89096432D01*
X153424732Y-89096431D01*
X153413275Y-89091088D01*
X153366132Y-89069105D01*
X153313694Y-89022934D01*
X153294542Y-88955740D01*
X153314758Y-88888859D01*
X153366134Y-88844341D01*
X153424484Y-88817132D01*
X153610820Y-88686657D01*
X153771657Y-88525820D01*
X153902134Y-88339482D01*
X153998265Y-88133326D01*
X153998269Y-88133317D01*
X154050872Y-87937000D01*
X153205012Y-87937000D01*
X153237925Y-87879993D01*
X153272000Y-87752826D01*
X153272000Y-87621174D01*
X153237925Y-87494007D01*
X153205012Y-87437000D01*
X154050872Y-87437000D01*
X154050872Y-87436999D01*
X153998269Y-87240682D01*
X153998265Y-87240673D01*
X153902134Y-87034517D01*
X153771657Y-86848179D01*
X153610820Y-86687342D01*
X153424482Y-86556865D01*
X153366133Y-86529657D01*
X153313694Y-86483484D01*
X153294542Y-86416291D01*
X153314758Y-86349410D01*
X153366129Y-86304895D01*
X153424734Y-86277568D01*
X153611139Y-86147047D01*
X153772047Y-85986139D01*
X153902568Y-85799734D01*
X153902571Y-85799727D01*
X153905279Y-85795039D01*
X153906872Y-85795958D01*
X153947632Y-85749661D01*
X154013849Y-85730500D01*
X155657588Y-85730500D01*
X155724627Y-85750185D01*
X155734903Y-85757555D01*
X155737736Y-85759814D01*
X155737738Y-85759816D01*
X155890478Y-85855789D01*
X156060745Y-85915368D01*
X156060750Y-85915369D01*
X156239996Y-85935565D01*
X156240000Y-85935565D01*
X156240004Y-85935565D01*
X156419249Y-85915369D01*
X156419252Y-85915368D01*
X156419255Y-85915368D01*
X156589522Y-85855789D01*
X156742262Y-85759816D01*
X156869816Y-85632262D01*
X156965789Y-85479522D01*
X157025368Y-85309255D01*
X157025369Y-85309249D01*
X157045565Y-85130003D01*
X157045565Y-85129996D01*
X157025369Y-84950750D01*
X157025368Y-84950745D01*
X157014718Y-84920308D01*
X156965789Y-84780478D01*
X156869816Y-84627738D01*
X156742262Y-84500184D01*
X156704765Y-84476623D01*
X156589523Y-84404211D01*
X156419254Y-84344631D01*
X156419249Y-84344630D01*
X156240004Y-84324435D01*
X156239996Y-84324435D01*
X156060750Y-84344630D01*
X156060745Y-84344631D01*
X155890476Y-84404211D01*
X155737736Y-84500185D01*
X155734903Y-84502445D01*
X155732724Y-84503334D01*
X155731842Y-84503889D01*
X155731744Y-84503734D01*
X155670217Y-84528855D01*
X155657588Y-84529500D01*
X153991789Y-84529500D01*
X153924750Y-84509815D01*
X153890214Y-84476623D01*
X153772045Y-84307858D01*
X153611141Y-84146954D01*
X153515158Y-84079747D01*
X153424734Y-84016432D01*
X153424730Y-84016430D01*
X153388314Y-83999448D01*
X153335876Y-83953275D01*
X153333335Y-83949069D01*
X153324175Y-83933204D01*
X153307701Y-83865304D01*
X153330552Y-83799277D01*
X153379154Y-83758821D01*
X153424734Y-83737568D01*
X153611139Y-83607047D01*
X153772047Y-83446139D01*
X153902568Y-83259734D01*
X153998739Y-83053496D01*
X154057635Y-82833692D01*
X154077468Y-82607000D01*
X154057635Y-82380308D01*
X153998739Y-82160504D01*
X153902568Y-81954266D01*
X153772047Y-81767861D01*
X153772045Y-81767858D01*
X153611141Y-81606954D01*
X153424734Y-81476432D01*
X153424728Y-81476429D01*
X153366725Y-81449382D01*
X153314285Y-81403210D01*
X153295133Y-81336017D01*
X153315348Y-81269135D01*
X153366725Y-81224618D01*
X153424734Y-81197568D01*
X153611139Y-81067047D01*
X153772047Y-80906139D01*
X153902568Y-80719734D01*
X153998739Y-80513496D01*
X154057635Y-80293692D01*
X154077468Y-80067000D01*
X154057635Y-79840308D01*
X154037082Y-79763604D01*
X154031847Y-79744066D01*
X154033510Y-79674217D01*
X154063939Y-79624294D01*
X154230506Y-79457728D01*
X154230511Y-79457724D01*
X154240714Y-79447520D01*
X154240716Y-79447520D01*
X154352520Y-79335716D01*
X154414790Y-79227861D01*
X154431577Y-79198785D01*
X154472501Y-79046057D01*
X154472501Y-78887943D01*
X154472501Y-78880348D01*
X154472500Y-78880330D01*
X154472500Y-77108059D01*
X154472501Y-77108046D01*
X154472501Y-76939945D01*
X154472501Y-76939943D01*
X154431577Y-76787215D01*
X154416858Y-76761723D01*
X154396754Y-76726900D01*
X154396753Y-76726899D01*
X154352521Y-76650286D01*
X154352520Y-76650284D01*
X154240716Y-76538480D01*
X154240715Y-76538479D01*
X154236385Y-76534149D01*
X154236374Y-76534139D01*
X153737891Y-76035656D01*
X153704406Y-75974333D01*
X153709390Y-75904641D01*
X153737890Y-75860295D01*
X153772047Y-75826139D01*
X153902118Y-75640375D01*
X153956693Y-75596752D01*
X154003692Y-75587500D01*
X154446217Y-75587500D01*
X154513256Y-75607185D01*
X154533898Y-75623819D01*
X157783181Y-78873102D01*
X157816666Y-78934425D01*
X157819500Y-78960783D01*
X157819500Y-96777450D01*
X157799815Y-96844489D01*
X157747011Y-96890244D01*
X157682906Y-96900809D01*
X157674989Y-96900000D01*
X157250000Y-96900000D01*
X157250000Y-97719670D01*
X157230255Y-97699925D01*
X157144745Y-97650556D01*
X157049370Y-97625000D01*
X156950630Y-97625000D01*
X156855255Y-97650556D01*
X156769745Y-97699925D01*
X156750000Y-97719670D01*
X156750000Y-96900000D01*
X156325028Y-96900000D01*
X156325012Y-96900001D01*
X156222302Y-96910494D01*
X156055880Y-96965641D01*
X156055875Y-96965643D01*
X155906654Y-97057684D01*
X155782684Y-97181654D01*
X155690643Y-97330875D01*
X155690641Y-97330880D01*
X155635494Y-97497302D01*
X155635493Y-97497309D01*
X155625000Y-97600013D01*
X155625000Y-97750000D01*
X156719670Y-97750000D01*
X156699925Y-97769745D01*
X156650556Y-97855255D01*
X156625000Y-97950630D01*
X156625000Y-98049370D01*
X156650556Y-98144745D01*
X156699925Y-98230255D01*
X156719670Y-98250000D01*
X155625001Y-98250000D01*
X155625001Y-98399986D01*
X155635494Y-98502697D01*
X155690641Y-98669119D01*
X155690643Y-98669124D01*
X155782684Y-98818345D01*
X155906656Y-98942317D01*
X155970906Y-98981946D01*
X156017631Y-99033893D01*
X156028854Y-99102856D01*
X156001011Y-99166938D01*
X155993492Y-99175166D01*
X155885585Y-99283073D01*
X155783768Y-99423211D01*
X155705128Y-99577552D01*
X155651597Y-99742302D01*
X155636104Y-99840123D01*
X155624500Y-99913389D01*
X155624500Y-100086611D01*
X155651598Y-100257701D01*
X155705127Y-100422445D01*
X155783768Y-100576788D01*
X155885586Y-100716928D01*
X156008072Y-100839414D01*
X156008078Y-100839418D01*
X156091023Y-100899683D01*
X156133689Y-100955013D01*
X156139667Y-101024626D01*
X156107061Y-101086421D01*
X156091023Y-101100317D01*
X156008078Y-101160581D01*
X156008069Y-101160588D01*
X155885588Y-101283069D01*
X155885588Y-101283070D01*
X155885586Y-101283072D01*
X155855070Y-101325074D01*
X155783768Y-101423211D01*
X155705128Y-101577552D01*
X155651597Y-101742302D01*
X155624500Y-101913389D01*
X155624500Y-102086611D01*
X155651598Y-102257701D01*
X155705127Y-102422445D01*
X155783768Y-102576788D01*
X155885586Y-102716928D01*
X156008072Y-102839414D01*
X156008078Y-102839418D01*
X156091023Y-102899683D01*
X156133689Y-102955013D01*
X156139667Y-103024626D01*
X156107061Y-103086421D01*
X156091023Y-103100317D01*
X156008078Y-103160581D01*
X156008069Y-103160588D01*
X155885588Y-103283069D01*
X155885588Y-103283070D01*
X155885586Y-103283072D01*
X155841859Y-103343256D01*
X155783768Y-103423211D01*
X155705128Y-103577552D01*
X155651597Y-103742302D01*
X155628003Y-103891273D01*
X155624500Y-103913389D01*
X155624500Y-104086611D01*
X155651598Y-104257701D01*
X155705127Y-104422445D01*
X155783768Y-104576788D01*
X155885586Y-104716928D01*
X156008072Y-104839414D01*
X156148212Y-104941232D01*
X156302555Y-105019873D01*
X156467299Y-105073402D01*
X156638389Y-105100500D01*
X156638390Y-105100500D01*
X157361610Y-105100500D01*
X157361611Y-105100500D01*
X157532701Y-105073402D01*
X157697445Y-105019873D01*
X157851788Y-104941232D01*
X157991928Y-104839414D01*
X158114414Y-104716928D01*
X158216232Y-104576788D01*
X158294873Y-104422445D01*
X158348402Y-104257701D01*
X158360227Y-104183041D01*
X158390156Y-104119907D01*
X158449467Y-104082975D01*
X158519330Y-104083973D01*
X158577563Y-104122583D01*
X158605677Y-104186546D01*
X158606700Y-104202439D01*
X158606700Y-113120530D01*
X158606699Y-113120548D01*
X158606699Y-113286256D01*
X158644388Y-113426914D01*
X158642725Y-113496764D01*
X158623880Y-113533317D01*
X158481375Y-113723682D01*
X158481370Y-113723690D01*
X158344235Y-113974833D01*
X158244228Y-114242962D01*
X158183404Y-114522566D01*
X158162990Y-114807998D01*
X158162990Y-114808001D01*
X158183404Y-115093433D01*
X158244228Y-115373037D01*
X158244230Y-115373043D01*
X158244231Y-115373046D01*
X158344233Y-115641161D01*
X158344235Y-115641166D01*
X158481370Y-115892309D01*
X158481375Y-115892317D01*
X158652854Y-116121387D01*
X158652870Y-116121405D01*
X158855194Y-116323729D01*
X158855212Y-116323745D01*
X159084282Y-116495224D01*
X159084290Y-116495229D01*
X159335433Y-116632364D01*
X159335432Y-116632364D01*
X159335436Y-116632365D01*
X159335439Y-116632367D01*
X159603554Y-116732369D01*
X159603560Y-116732370D01*
X159603562Y-116732371D01*
X159883166Y-116793195D01*
X159883168Y-116793195D01*
X159883172Y-116793196D01*
X160136820Y-116811337D01*
X160168599Y-116813610D01*
X160168600Y-116813610D01*
X160168601Y-116813610D01*
X160197195Y-116811564D01*
X160454028Y-116793196D01*
X160733646Y-116732369D01*
X161001761Y-116632367D01*
X161252915Y-116495226D01*
X161481995Y-116323739D01*
X161684339Y-116121395D01*
X161855826Y-115892315D01*
X161992967Y-115641161D01*
X162092969Y-115373046D01*
X162153796Y-115093428D01*
X162174210Y-114808000D01*
X162174210Y-114807998D01*
X163162990Y-114807998D01*
X163162990Y-114808001D01*
X163183404Y-115093433D01*
X163244228Y-115373037D01*
X163244230Y-115373043D01*
X163244231Y-115373046D01*
X163344233Y-115641161D01*
X163344235Y-115641166D01*
X163481370Y-115892309D01*
X163481375Y-115892317D01*
X163652854Y-116121387D01*
X163652870Y-116121405D01*
X163855194Y-116323729D01*
X163855212Y-116323745D01*
X164084282Y-116495224D01*
X164084290Y-116495229D01*
X164335433Y-116632364D01*
X164335432Y-116632364D01*
X164335436Y-116632365D01*
X164335439Y-116632367D01*
X164603554Y-116732369D01*
X164603560Y-116732370D01*
X164603562Y-116732371D01*
X164883166Y-116793195D01*
X164883168Y-116793195D01*
X164883172Y-116793196D01*
X165136820Y-116811337D01*
X165168599Y-116813610D01*
X165168600Y-116813610D01*
X165168601Y-116813610D01*
X165197195Y-116811564D01*
X165454028Y-116793196D01*
X165733646Y-116732369D01*
X166001761Y-116632367D01*
X166252915Y-116495226D01*
X166481995Y-116323739D01*
X166684339Y-116121395D01*
X166855826Y-115892315D01*
X166992967Y-115641161D01*
X167092969Y-115373046D01*
X167153796Y-115093428D01*
X167174210Y-114808000D01*
X167153796Y-114522572D01*
X167092969Y-114242954D01*
X166992967Y-113974839D01*
X166855826Y-113723685D01*
X166855824Y-113723682D01*
X166684345Y-113494612D01*
X166684329Y-113494594D01*
X166482005Y-113292270D01*
X166481987Y-113292254D01*
X166252917Y-113120775D01*
X166252909Y-113120770D01*
X166001766Y-112983635D01*
X166001767Y-112983635D01*
X165894515Y-112943632D01*
X165733646Y-112883631D01*
X165733643Y-112883630D01*
X165733637Y-112883628D01*
X165454033Y-112822804D01*
X165168601Y-112802390D01*
X165168599Y-112802390D01*
X164883166Y-112822804D01*
X164603562Y-112883628D01*
X164335433Y-112983635D01*
X164084290Y-113120770D01*
X164084282Y-113120775D01*
X163855212Y-113292254D01*
X163855194Y-113292270D01*
X163652870Y-113494594D01*
X163652854Y-113494612D01*
X163481375Y-113723682D01*
X163481370Y-113723690D01*
X163344235Y-113974833D01*
X163244228Y-114242962D01*
X163183404Y-114522566D01*
X163162990Y-114807998D01*
X162174210Y-114807998D01*
X162153796Y-114522572D01*
X162092969Y-114242954D01*
X161992967Y-113974839D01*
X161855826Y-113723685D01*
X161855824Y-113723682D01*
X161684345Y-113494612D01*
X161684329Y-113494594D01*
X161482005Y-113292270D01*
X161481987Y-113292254D01*
X161252917Y-113120775D01*
X161252909Y-113120770D01*
X161001766Y-112983635D01*
X161001767Y-112983635D01*
X160894515Y-112943632D01*
X160733646Y-112883631D01*
X160733643Y-112883630D01*
X160733637Y-112883628D01*
X160454033Y-112822804D01*
X160168601Y-112802390D01*
X160168599Y-112802390D01*
X159940546Y-112818700D01*
X159872273Y-112803848D01*
X159822868Y-112754443D01*
X159807700Y-112695016D01*
X159807700Y-102488841D01*
X159811925Y-102456747D01*
X159820501Y-102424743D01*
X159820501Y-102266629D01*
X159820501Y-102259034D01*
X159820500Y-102259016D01*
X159820500Y-100999995D01*
X162294732Y-100999995D01*
X162294732Y-101000004D01*
X162313777Y-101254154D01*
X162352363Y-101423212D01*
X162370492Y-101502637D01*
X162463607Y-101739888D01*
X162591041Y-101960612D01*
X162749950Y-102159877D01*
X162936783Y-102333232D01*
X163147366Y-102476805D01*
X163147371Y-102476807D01*
X163147372Y-102476808D01*
X163147373Y-102476809D01*
X163269328Y-102535538D01*
X163376992Y-102587387D01*
X163376993Y-102587387D01*
X163376996Y-102587389D01*
X163620542Y-102662513D01*
X163872565Y-102700500D01*
X164127435Y-102700500D01*
X164379458Y-102662513D01*
X164623004Y-102587389D01*
X164852634Y-102476805D01*
X165063217Y-102333232D01*
X165250050Y-102159877D01*
X165408959Y-101960612D01*
X165536393Y-101739888D01*
X165629508Y-101502637D01*
X165686222Y-101254157D01*
X165694384Y-101145232D01*
X165705268Y-101000004D01*
X165705268Y-100999995D01*
X165686222Y-100745845D01*
X165679622Y-100716930D01*
X165629508Y-100497363D01*
X165536393Y-100260112D01*
X165408959Y-100039388D01*
X165250050Y-99840123D01*
X165063217Y-99666768D01*
X164852634Y-99523195D01*
X164852630Y-99523193D01*
X164852627Y-99523191D01*
X164852626Y-99523190D01*
X164623006Y-99412612D01*
X164623008Y-99412612D01*
X164379466Y-99337489D01*
X164379462Y-99337488D01*
X164379458Y-99337487D01*
X164258231Y-99319214D01*
X164127440Y-99299500D01*
X164127435Y-99299500D01*
X163872565Y-99299500D01*
X163872559Y-99299500D01*
X163715609Y-99323157D01*
X163620542Y-99337487D01*
X163620539Y-99337488D01*
X163620533Y-99337489D01*
X163376992Y-99412612D01*
X163147373Y-99523190D01*
X163147372Y-99523191D01*
X162936782Y-99666768D01*
X162749952Y-99840121D01*
X162749950Y-99840123D01*
X162591041Y-100039388D01*
X162463608Y-100260109D01*
X162370492Y-100497362D01*
X162370490Y-100497369D01*
X162313777Y-100745845D01*
X162294732Y-100999995D01*
X159820500Y-100999995D01*
X159820500Y-67944097D01*
X159840185Y-67877058D01*
X159892989Y-67831303D01*
X159962147Y-67821359D01*
X160025703Y-67850384D01*
G37*
%TD.AperFunction*%
%TA.AperFunction,Conductor*%
G36*
X146243740Y-69890185D02*
G01*
X146289495Y-69942989D01*
X146299921Y-69980617D01*
X146307653Y-70049249D01*
X146367233Y-70219521D01*
X146451416Y-70353497D01*
X146463207Y-70372262D01*
X146590761Y-70499816D01*
X146743501Y-70595789D01*
X146913768Y-70655368D01*
X146920429Y-70656118D01*
X146984843Y-70683181D01*
X147024401Y-70740774D01*
X147029771Y-70765455D01*
X147040877Y-70864027D01*
X147040878Y-70864031D01*
X147100458Y-71034300D01*
X147148521Y-71110791D01*
X147190741Y-71177984D01*
X147196432Y-71187040D01*
X147198692Y-71189874D01*
X147199581Y-71192052D01*
X147200136Y-71192935D01*
X147199981Y-71193032D01*
X147225102Y-71254560D01*
X147225747Y-71267189D01*
X147225747Y-73060263D01*
X147225746Y-73060281D01*
X147225746Y-73225987D01*
X147225745Y-73225987D01*
X147266671Y-73378720D01*
X147282873Y-73406782D01*
X147282874Y-73406784D01*
X147345724Y-73515645D01*
X147345728Y-73515650D01*
X147464596Y-73634518D01*
X147464602Y-73634523D01*
X151001181Y-77171102D01*
X151034666Y-77232425D01*
X151037500Y-77258783D01*
X151037500Y-81259624D01*
X151017815Y-81326663D01*
X150965011Y-81372418D01*
X150895853Y-81382362D01*
X150832297Y-81353337D01*
X150794523Y-81294559D01*
X150791883Y-81283815D01*
X150783981Y-81244090D01*
X150750427Y-81075402D01*
X150564020Y-80331224D01*
X150341323Y-79597089D01*
X150082872Y-78874766D01*
X149789289Y-78165994D01*
X149461282Y-77472481D01*
X149461278Y-77472473D01*
X149461271Y-77472459D01*
X149099644Y-76795904D01*
X149099639Y-76795896D01*
X149058284Y-76726900D01*
X148705237Y-76137876D01*
X148279021Y-75499998D01*
X147822019Y-74883802D01*
X147335332Y-74290773D01*
X147335328Y-74290768D01*
X146820138Y-73722343D01*
X146277656Y-73179861D01*
X145709231Y-72664671D01*
X145436118Y-72440533D01*
X145116198Y-72177981D01*
X144500002Y-71720979D01*
X143862124Y-71294763D01*
X143853146Y-71289382D01*
X143204103Y-70900360D01*
X143204095Y-70900355D01*
X142527540Y-70538728D01*
X142527526Y-70538721D01*
X142001866Y-70290103D01*
X141834006Y-70210711D01*
X141834003Y-70210709D01*
X141833993Y-70210705D01*
X141833978Y-70210699D01*
X141588601Y-70109061D01*
X141534198Y-70065220D01*
X141512133Y-69998926D01*
X141529412Y-69931227D01*
X141580549Y-69883616D01*
X141636054Y-69870500D01*
X146176701Y-69870500D01*
X146243740Y-69890185D01*
G37*
%TD.AperFunction*%
%TA.AperFunction,Conductor*%
G36*
X154513256Y-62907185D02*
G01*
X154533898Y-62923819D01*
X158583181Y-66973102D01*
X158616666Y-67034425D01*
X158619500Y-67060783D01*
X158619500Y-77145902D01*
X158599815Y-77212941D01*
X158547011Y-77258696D01*
X158477853Y-77268640D01*
X158414297Y-77239615D01*
X158407819Y-77233583D01*
X154063941Y-72889706D01*
X154030456Y-72828383D01*
X154031847Y-72769931D01*
X154037668Y-72748207D01*
X154057635Y-72673692D01*
X154077468Y-72447000D01*
X154057635Y-72220308D01*
X154012916Y-72053415D01*
X153998741Y-72000511D01*
X153998738Y-72000502D01*
X153902568Y-71794267D01*
X153902567Y-71794265D01*
X153772045Y-71607858D01*
X153611141Y-71446954D01*
X153424734Y-71316432D01*
X153424728Y-71316429D01*
X153366725Y-71289382D01*
X153314285Y-71243210D01*
X153295133Y-71176017D01*
X153315348Y-71109135D01*
X153366725Y-71064618D01*
X153375125Y-71060701D01*
X153424734Y-71037568D01*
X153611139Y-70907047D01*
X153772047Y-70746139D01*
X153902568Y-70559734D01*
X153998739Y-70353496D01*
X154057635Y-70133692D01*
X154077468Y-69907000D01*
X154074812Y-69876647D01*
X154069529Y-69816252D01*
X154057635Y-69680308D01*
X154007798Y-69494314D01*
X153998741Y-69460511D01*
X153998738Y-69460502D01*
X153921529Y-69294928D01*
X153902568Y-69254266D01*
X153772047Y-69067861D01*
X153772045Y-69067858D01*
X153611141Y-68906954D01*
X153424734Y-68776432D01*
X153424728Y-68776429D01*
X153366725Y-68749382D01*
X153314285Y-68703210D01*
X153295133Y-68636017D01*
X153315348Y-68569135D01*
X153366725Y-68524618D01*
X153424734Y-68497568D01*
X153611139Y-68367047D01*
X153772047Y-68206139D01*
X153902568Y-68019734D01*
X153998739Y-67813496D01*
X154057635Y-67593692D01*
X154077468Y-67367000D01*
X154057635Y-67140308D01*
X154012833Y-66973102D01*
X153998741Y-66920511D01*
X153998738Y-66920502D01*
X153966156Y-66850630D01*
X153902568Y-66714266D01*
X153772047Y-66527861D01*
X153772045Y-66527858D01*
X153611141Y-66366954D01*
X153424734Y-66236432D01*
X153424728Y-66236429D01*
X153366725Y-66209382D01*
X153314285Y-66163210D01*
X153295133Y-66096017D01*
X153315348Y-66029135D01*
X153366725Y-65984618D01*
X153424734Y-65957568D01*
X153611139Y-65827047D01*
X153772047Y-65666139D01*
X153902568Y-65479734D01*
X153998739Y-65273496D01*
X154057635Y-65053692D01*
X154077468Y-64827000D01*
X154057635Y-64600308D01*
X154009082Y-64419106D01*
X153998741Y-64380511D01*
X153998738Y-64380502D01*
X153944813Y-64264861D01*
X153902568Y-64174266D01*
X153772047Y-63987861D01*
X153772045Y-63987858D01*
X153611141Y-63826954D01*
X153424734Y-63696432D01*
X153424728Y-63696429D01*
X153366725Y-63669382D01*
X153314285Y-63623210D01*
X153295133Y-63556017D01*
X153315348Y-63489135D01*
X153366725Y-63444618D01*
X153424734Y-63417568D01*
X153611139Y-63287047D01*
X153772047Y-63126139D01*
X153902118Y-62940375D01*
X153956693Y-62896752D01*
X154003692Y-62887500D01*
X154446217Y-62887500D01*
X154513256Y-62907185D01*
G37*
%TD.AperFunction*%
%TA.AperFunction,Conductor*%
G36*
X151416753Y-69890185D02*
G01*
X151462508Y-69942989D01*
X151473241Y-69983691D01*
X151477461Y-70031929D01*
X151486364Y-70133686D01*
X151486366Y-70133697D01*
X151545258Y-70353488D01*
X151545261Y-70353497D01*
X151641431Y-70559732D01*
X151641432Y-70559734D01*
X151771954Y-70746141D01*
X151932858Y-70907045D01*
X151932861Y-70907047D01*
X152119266Y-71037568D01*
X152168875Y-71060701D01*
X152177275Y-71064618D01*
X152229714Y-71110791D01*
X152248866Y-71177984D01*
X152228650Y-71244865D01*
X152177275Y-71289382D01*
X152119267Y-71316431D01*
X152119265Y-71316432D01*
X151932858Y-71446954D01*
X151771954Y-71607858D01*
X151641432Y-71794265D01*
X151641431Y-71794267D01*
X151545261Y-72000502D01*
X151545258Y-72000511D01*
X151486366Y-72220302D01*
X151486364Y-72220313D01*
X151466532Y-72446998D01*
X151466532Y-72447001D01*
X151486364Y-72673686D01*
X151486366Y-72673697D01*
X151545258Y-72893488D01*
X151545261Y-72893497D01*
X151641431Y-73099732D01*
X151641432Y-73099734D01*
X151771954Y-73286141D01*
X151932858Y-73447045D01*
X151932861Y-73447047D01*
X152119266Y-73577568D01*
X152177275Y-73604618D01*
X152229714Y-73650791D01*
X152248866Y-73717984D01*
X152228650Y-73784865D01*
X152177275Y-73829382D01*
X152119267Y-73856431D01*
X152119265Y-73856432D01*
X151932858Y-73986954D01*
X151771954Y-74147858D01*
X151641432Y-74334265D01*
X151641431Y-74334267D01*
X151545261Y-74540502D01*
X151545259Y-74540509D01*
X151527976Y-74605011D01*
X151491611Y-74664671D01*
X151428763Y-74695200D01*
X151359388Y-74686905D01*
X151320520Y-74660598D01*
X150334059Y-73674138D01*
X149576819Y-72916898D01*
X149543334Y-72855575D01*
X149540500Y-72829217D01*
X149540500Y-70502412D01*
X149560185Y-70435373D01*
X149567555Y-70425097D01*
X149569810Y-70422267D01*
X149569816Y-70422262D01*
X149665789Y-70269522D01*
X149725368Y-70099255D01*
X149731002Y-70049255D01*
X149738736Y-69980616D01*
X149765803Y-69916202D01*
X149823397Y-69876647D01*
X149861956Y-69870500D01*
X151349714Y-69870500D01*
X151416753Y-69890185D01*
G37*
%TD.AperFunction*%
%TA.AperFunction,Conductor*%
G36*
X155926256Y-56700185D02*
G01*
X155946898Y-56716819D01*
X166275181Y-67045102D01*
X166308666Y-67106425D01*
X166311500Y-67132783D01*
X166311500Y-68720330D01*
X166311499Y-68720348D01*
X166311499Y-68886054D01*
X166311498Y-68886054D01*
X166352422Y-69038782D01*
X166352424Y-69038788D01*
X166354509Y-69042398D01*
X166354510Y-69042400D01*
X166431477Y-69175712D01*
X166431481Y-69175717D01*
X166550349Y-69294585D01*
X166550355Y-69294590D01*
X166720058Y-69464293D01*
X166753543Y-69525616D01*
X166752152Y-69584067D01*
X166726366Y-69680302D01*
X166726364Y-69680313D01*
X166706532Y-69906998D01*
X166706532Y-69907001D01*
X166726364Y-70133686D01*
X166726366Y-70133697D01*
X166785258Y-70353488D01*
X166785261Y-70353497D01*
X166881431Y-70559732D01*
X166881432Y-70559734D01*
X167011954Y-70746141D01*
X167172858Y-70907045D01*
X167172861Y-70907047D01*
X167359266Y-71037568D01*
X167408875Y-71060701D01*
X167417275Y-71064618D01*
X167469714Y-71110791D01*
X167488866Y-71177984D01*
X167468650Y-71244865D01*
X167417275Y-71289382D01*
X167359267Y-71316431D01*
X167359265Y-71316432D01*
X167172858Y-71446954D01*
X167011954Y-71607858D01*
X166881432Y-71794265D01*
X166881431Y-71794267D01*
X166785261Y-72000502D01*
X166785258Y-72000511D01*
X166726366Y-72220302D01*
X166726364Y-72220313D01*
X166706532Y-72446998D01*
X166706532Y-72447001D01*
X166713780Y-72529847D01*
X166700013Y-72598347D01*
X166651398Y-72648530D01*
X166583369Y-72664463D01*
X166517526Y-72641088D01*
X166502571Y-72628335D01*
X154508819Y-60634583D01*
X154475334Y-60573260D01*
X154472500Y-60546902D01*
X154472500Y-59076345D01*
X154472500Y-59076343D01*
X154431577Y-58923616D01*
X154362876Y-58804621D01*
X154352524Y-58786690D01*
X154352521Y-58786686D01*
X154352520Y-58786684D01*
X154240716Y-58674880D01*
X154240715Y-58674879D01*
X154236385Y-58670549D01*
X154236374Y-58670539D01*
X153801990Y-58236155D01*
X153801988Y-58236152D01*
X153779358Y-58213522D01*
X153745873Y-58152199D01*
X153750857Y-58082507D01*
X153769313Y-58050834D01*
X153768942Y-58050574D01*
X153811358Y-57989997D01*
X153902568Y-57859734D01*
X153998739Y-57653496D01*
X154057635Y-57433692D01*
X154077468Y-57207000D01*
X154057635Y-56980308D01*
X154019127Y-56836593D01*
X154020790Y-56766743D01*
X154059953Y-56708881D01*
X154124181Y-56681377D01*
X154138902Y-56680500D01*
X155859217Y-56680500D01*
X155926256Y-56700185D01*
G37*
%TD.AperFunction*%
%TA.AperFunction,Conductor*%
G36*
X147941039Y-67700185D02*
G01*
X147986794Y-67752989D01*
X147998000Y-67804500D01*
X147998000Y-67900000D01*
X148971184Y-67900000D01*
X148955124Y-67916060D01*
X148904964Y-68002939D01*
X148879000Y-68099840D01*
X148879000Y-68200160D01*
X148904964Y-68297061D01*
X148955124Y-68383940D01*
X148971184Y-68400000D01*
X147998000Y-68400000D01*
X147998000Y-68545500D01*
X147978315Y-68612539D01*
X147925511Y-68658294D01*
X147874000Y-68669500D01*
X143026000Y-68669500D01*
X142958961Y-68649815D01*
X142913206Y-68597011D01*
X142902000Y-68545500D01*
X142902000Y-68400000D01*
X141928816Y-68400000D01*
X141944876Y-68383940D01*
X141995036Y-68297061D01*
X142021000Y-68200160D01*
X142021000Y-68099840D01*
X141995036Y-68002939D01*
X141944876Y-67916060D01*
X141928816Y-67900000D01*
X142902000Y-67900000D01*
X142902000Y-67804500D01*
X142921685Y-67737461D01*
X142974489Y-67691706D01*
X143026000Y-67680500D01*
X147874000Y-67680500D01*
X147941039Y-67700185D01*
G37*
%TD.AperFunction*%
%TA.AperFunction,Conductor*%
G36*
X151481515Y-67700185D02*
G01*
X151527270Y-67752989D01*
X151534251Y-67772407D01*
X151545258Y-67813488D01*
X151545261Y-67813497D01*
X151641431Y-68019732D01*
X151641432Y-68019734D01*
X151771954Y-68206141D01*
X151932858Y-68367045D01*
X152042655Y-68443925D01*
X152086280Y-68498501D01*
X152093474Y-68568000D01*
X152061952Y-68630355D01*
X152001722Y-68665769D01*
X151971532Y-68669500D01*
X150646000Y-68669500D01*
X150578961Y-68649815D01*
X150533206Y-68597011D01*
X150522000Y-68545500D01*
X150522000Y-68400000D01*
X149548816Y-68400000D01*
X149564876Y-68383940D01*
X149615036Y-68297061D01*
X149641000Y-68200160D01*
X149641000Y-68099840D01*
X149615036Y-68002939D01*
X149564876Y-67916060D01*
X149548816Y-67900000D01*
X150522000Y-67900000D01*
X150522000Y-67804500D01*
X150541685Y-67737461D01*
X150594489Y-67691706D01*
X150646000Y-67680500D01*
X151414476Y-67680500D01*
X151481515Y-67700185D01*
G37*
%TD.AperFunction*%
%TA.AperFunction,Conductor*%
G36*
X130007256Y-66345185D02*
G01*
X130053011Y-66397989D01*
X130062955Y-66467147D01*
X130033930Y-66530703D01*
X130027898Y-66537181D01*
X129111898Y-67453181D01*
X129050575Y-67486666D01*
X129024217Y-67489500D01*
X113486367Y-67489500D01*
X113454275Y-67485275D01*
X113414058Y-67474499D01*
X113414057Y-67474499D01*
X113255943Y-67474499D01*
X113248347Y-67474499D01*
X113248331Y-67474500D01*
X112611460Y-67474500D01*
X112544421Y-67454815D01*
X112498666Y-67402011D01*
X112488722Y-67332853D01*
X112488987Y-67331102D01*
X112500000Y-67261570D01*
X112500000Y-67150000D01*
X111680330Y-67150000D01*
X111700075Y-67130255D01*
X111749444Y-67044745D01*
X111775000Y-66949370D01*
X111775000Y-66850630D01*
X111749444Y-66755255D01*
X111700075Y-66669745D01*
X111680330Y-66650000D01*
X112500000Y-66650000D01*
X112500000Y-66538429D01*
X112488987Y-66468898D01*
X112497941Y-66399605D01*
X112542937Y-66346153D01*
X112609689Y-66325513D01*
X112611460Y-66325500D01*
X129940217Y-66325500D01*
X130007256Y-66345185D01*
G37*
%TD.AperFunction*%
%TA.AperFunction,Conductor*%
G36*
X136376912Y-62554836D02*
G01*
X136421259Y-62583337D01*
X136467738Y-62629816D01*
X136620478Y-62725789D01*
X136708511Y-62756593D01*
X136790745Y-62785368D01*
X136790750Y-62785369D01*
X136969996Y-62805565D01*
X136970000Y-62805565D01*
X136970004Y-62805565D01*
X137149249Y-62785369D01*
X137149252Y-62785368D01*
X137149255Y-62785368D01*
X137319522Y-62725789D01*
X137472262Y-62629816D01*
X137472267Y-62629810D01*
X137475097Y-62627555D01*
X137477275Y-62626665D01*
X137478158Y-62626111D01*
X137478255Y-62626265D01*
X137539783Y-62601145D01*
X137552412Y-62600500D01*
X137996520Y-62600500D01*
X138063559Y-62620185D01*
X138109314Y-62672989D01*
X138119740Y-62710617D01*
X138127472Y-62779249D01*
X138187052Y-62949521D01*
X138187053Y-62949522D01*
X138283026Y-63102262D01*
X138375414Y-63194650D01*
X138410580Y-63229816D01*
X138411770Y-63230765D01*
X138426557Y-63245830D01*
X138426576Y-63245812D01*
X138551191Y-63370427D01*
X138551197Y-63370432D01*
X140379084Y-65198319D01*
X140412569Y-65259642D01*
X140411178Y-65318092D01*
X140391932Y-65389923D01*
X140391929Y-65389937D01*
X140372677Y-65609997D01*
X140372677Y-65610002D01*
X140391929Y-65830062D01*
X140391931Y-65830073D01*
X140416940Y-65923407D01*
X140415277Y-65993257D01*
X140376114Y-66051119D01*
X140311886Y-66078623D01*
X140297165Y-66079500D01*
X133460864Y-66079500D01*
X133393825Y-66059815D01*
X133355871Y-66021473D01*
X133325083Y-65972476D01*
X133325082Y-65972474D01*
X133197527Y-65844919D01*
X133192081Y-65840576D01*
X133192993Y-65839432D01*
X133151954Y-65793035D01*
X133141307Y-65723981D01*
X133169683Y-65660133D01*
X133176525Y-65652708D01*
X136245897Y-62583337D01*
X136307220Y-62549852D01*
X136376912Y-62554836D01*
G37*
%TD.AperFunction*%
%TA.AperFunction,Conductor*%
G36*
X147984204Y-62620185D02*
G01*
X148029959Y-62672989D01*
X148039903Y-62742147D01*
X148036940Y-62756593D01*
X148011931Y-62849926D01*
X148011929Y-62849937D01*
X147992677Y-63069997D01*
X147992677Y-63070002D01*
X148011929Y-63290062D01*
X148011930Y-63290070D01*
X148069104Y-63503445D01*
X148069105Y-63503447D01*
X148069106Y-63503450D01*
X148107451Y-63585681D01*
X148162466Y-63703662D01*
X148162468Y-63703666D01*
X148289170Y-63884615D01*
X148289175Y-63884621D01*
X148445378Y-64040824D01*
X148445384Y-64040829D01*
X148626333Y-64167531D01*
X148626335Y-64167532D01*
X148626338Y-64167534D01*
X148702093Y-64202859D01*
X148755189Y-64227618D01*
X148807628Y-64273790D01*
X148826780Y-64340984D01*
X148806564Y-64407865D01*
X148755189Y-64452382D01*
X148626340Y-64512465D01*
X148626338Y-64512466D01*
X148445377Y-64639175D01*
X148289175Y-64795377D01*
X148176271Y-64956623D01*
X148121694Y-65000248D01*
X148074696Y-65009500D01*
X142825304Y-65009500D01*
X142758265Y-64989815D01*
X142723729Y-64956623D01*
X142610827Y-64795381D01*
X142539630Y-64724184D01*
X142454620Y-64639174D01*
X142454616Y-64639171D01*
X142454615Y-64639170D01*
X142273666Y-64512468D01*
X142273658Y-64512464D01*
X142144811Y-64452382D01*
X142092371Y-64406210D01*
X142073219Y-64339017D01*
X142093435Y-64272135D01*
X142144811Y-64227618D01*
X142150802Y-64224824D01*
X142273662Y-64167534D01*
X142454620Y-64040826D01*
X142610826Y-63884620D01*
X142737534Y-63703662D01*
X142830894Y-63503450D01*
X142888070Y-63290068D01*
X142907323Y-63070000D01*
X142888070Y-62849932D01*
X142869132Y-62779255D01*
X142863060Y-62756593D01*
X142864723Y-62686743D01*
X142903886Y-62628881D01*
X142968114Y-62601377D01*
X142982835Y-62600500D01*
X147917165Y-62600500D01*
X147984204Y-62620185D01*
G37*
%TD.AperFunction*%
%TA.AperFunction,Conductor*%
G36*
X168004418Y-50500816D02*
G01*
X168204561Y-50515130D01*
X168222063Y-50517647D01*
X168413797Y-50559355D01*
X168430755Y-50564334D01*
X168614604Y-50632907D01*
X168614609Y-50632909D01*
X168630701Y-50640259D01*
X168802904Y-50734288D01*
X168817784Y-50743849D01*
X168868087Y-50781506D01*
X168974867Y-50861441D01*
X168988237Y-50873027D01*
X169126972Y-51011762D01*
X169138558Y-51025132D01*
X169256146Y-51182210D01*
X169265711Y-51197095D01*
X169359740Y-51369298D01*
X169367090Y-51385390D01*
X169435662Y-51569236D01*
X169440646Y-51586212D01*
X169482351Y-51777931D01*
X169484869Y-51795442D01*
X169499184Y-51995579D01*
X169499500Y-52004426D01*
X169499500Y-54251803D01*
X169479815Y-54318842D01*
X169427011Y-54364597D01*
X169357853Y-54374541D01*
X169294297Y-54345516D01*
X169256523Y-54286738D01*
X169255725Y-54283896D01*
X169238741Y-54220511D01*
X169238738Y-54220502D01*
X169170923Y-54075074D01*
X169142568Y-54014266D01*
X169012047Y-53827861D01*
X169012045Y-53827858D01*
X168851141Y-53666954D01*
X168664734Y-53536432D01*
X168664732Y-53536431D01*
X168458497Y-53440261D01*
X168458488Y-53440258D01*
X168238697Y-53381366D01*
X168238693Y-53381365D01*
X168238692Y-53381365D01*
X168238691Y-53381364D01*
X168238686Y-53381364D01*
X168012002Y-53361532D01*
X168011998Y-53361532D01*
X167785313Y-53381364D01*
X167785302Y-53381366D01*
X167565511Y-53440258D01*
X167565502Y-53440261D01*
X167359267Y-53536431D01*
X167359265Y-53536432D01*
X167172858Y-53666954D01*
X167011954Y-53827858D01*
X166881432Y-54014265D01*
X166881431Y-54014267D01*
X166785261Y-54220502D01*
X166785258Y-54220511D01*
X166726366Y-54440302D01*
X166726364Y-54440313D01*
X166706532Y-54666998D01*
X166706532Y-54667001D01*
X166726364Y-54893686D01*
X166726366Y-54893697D01*
X166785258Y-55113488D01*
X166785261Y-55113497D01*
X166881431Y-55319732D01*
X166881432Y-55319734D01*
X167011954Y-55506141D01*
X167172858Y-55667045D01*
X167172861Y-55667047D01*
X167359266Y-55797568D01*
X167417275Y-55824618D01*
X167469714Y-55870791D01*
X167488866Y-55937984D01*
X167468650Y-56004865D01*
X167417275Y-56049382D01*
X167359267Y-56076431D01*
X167359265Y-56076432D01*
X167172858Y-56206954D01*
X167011954Y-56367858D01*
X166881432Y-56554265D01*
X166881431Y-56554267D01*
X166785261Y-56760502D01*
X166785258Y-56760511D01*
X166726366Y-56980302D01*
X166726364Y-56980313D01*
X166706532Y-57206998D01*
X166706532Y-57207001D01*
X166726364Y-57433686D01*
X166726366Y-57433697D01*
X166785258Y-57653488D01*
X166785261Y-57653497D01*
X166881431Y-57859732D01*
X166881432Y-57859734D01*
X167011954Y-58046141D01*
X167172858Y-58207045D01*
X167172861Y-58207047D01*
X167359266Y-58337568D01*
X167417275Y-58364618D01*
X167469714Y-58410791D01*
X167488866Y-58477984D01*
X167468650Y-58544865D01*
X167417275Y-58589382D01*
X167359267Y-58616431D01*
X167359265Y-58616432D01*
X167172858Y-58746954D01*
X167011954Y-58907858D01*
X166881432Y-59094265D01*
X166881431Y-59094267D01*
X166785261Y-59300502D01*
X166785258Y-59300511D01*
X166726366Y-59520302D01*
X166726364Y-59520313D01*
X166706532Y-59746998D01*
X166706532Y-59747001D01*
X166726364Y-59973686D01*
X166726366Y-59973697D01*
X166785258Y-60193488D01*
X166785261Y-60193497D01*
X166881431Y-60399732D01*
X166881432Y-60399734D01*
X167011954Y-60586141D01*
X167172858Y-60747045D01*
X167172861Y-60747047D01*
X167359266Y-60877568D01*
X167417275Y-60904618D01*
X167469714Y-60950791D01*
X167488866Y-61017984D01*
X167468650Y-61084865D01*
X167417275Y-61129382D01*
X167359267Y-61156431D01*
X167359265Y-61156432D01*
X167172858Y-61286954D01*
X167011954Y-61447858D01*
X166881432Y-61634265D01*
X166881431Y-61634267D01*
X166785261Y-61840502D01*
X166785258Y-61840511D01*
X166726366Y-62060302D01*
X166726364Y-62060313D01*
X166706532Y-62286998D01*
X166706532Y-62287001D01*
X166713780Y-62369847D01*
X166700013Y-62438347D01*
X166651398Y-62488530D01*
X166583369Y-62504463D01*
X166517526Y-62481088D01*
X166502571Y-62468335D01*
X154746416Y-50712181D01*
X154712931Y-50650858D01*
X154717915Y-50581166D01*
X154759787Y-50525233D01*
X154825251Y-50500816D01*
X154834097Y-50500500D01*
X167934108Y-50500500D01*
X167995572Y-50500500D01*
X168004418Y-50500816D01*
G37*
%TD.AperFunction*%
%TA.AperFunction,Conductor*%
G36*
X127808100Y-59630185D02*
G01*
X127828742Y-59646819D01*
X129894005Y-61712082D01*
X129927490Y-61773405D01*
X129922506Y-61843097D01*
X129880634Y-61899030D01*
X129815170Y-61923447D01*
X129806324Y-61923763D01*
X129771710Y-61923763D01*
X129771694Y-61923764D01*
X126791678Y-61923764D01*
X126638950Y-61964687D01*
X126599778Y-61987304D01*
X126599777Y-61987304D01*
X126502023Y-62043741D01*
X126502018Y-62043745D01*
X126257583Y-62288181D01*
X126196260Y-62321666D01*
X126169902Y-62324500D01*
X117191444Y-62324500D01*
X117124405Y-62304815D01*
X117103763Y-62288181D01*
X115875843Y-61060261D01*
X114637761Y-59822180D01*
X114604277Y-59760858D01*
X114609261Y-59691166D01*
X114651133Y-59635233D01*
X114716597Y-59610816D01*
X114725443Y-59610500D01*
X127741061Y-59610500D01*
X127808100Y-59630185D01*
G37*
%TD.AperFunction*%
%TA.AperFunction,Conductor*%
G36*
X134859510Y-59230185D02*
G01*
X134905265Y-59282989D01*
X134915209Y-59352147D01*
X134886184Y-59415703D01*
X134880152Y-59422181D01*
X132317184Y-61985149D01*
X132255861Y-62018634D01*
X132186169Y-62013650D01*
X132163531Y-62002462D01*
X132139407Y-61987304D01*
X132056386Y-61935138D01*
X132016620Y-61910151D01*
X131846348Y-61850571D01*
X131759429Y-61840778D01*
X131695015Y-61813711D01*
X131685632Y-61805239D01*
X129302574Y-59422181D01*
X129269089Y-59360858D01*
X129274073Y-59291166D01*
X129315945Y-59235233D01*
X129381409Y-59210816D01*
X129390255Y-59210500D01*
X134792471Y-59210500D01*
X134859510Y-59230185D01*
G37*
%TD.AperFunction*%
%TA.AperFunction,Conductor*%
G36*
X140441122Y-58490625D02*
G01*
X140497055Y-58532497D01*
X140510170Y-58554403D01*
X140542464Y-58623658D01*
X140542468Y-58623666D01*
X140669170Y-58804615D01*
X140669175Y-58804621D01*
X140825378Y-58960824D01*
X140825384Y-58960829D01*
X141006333Y-59087531D01*
X141006335Y-59087532D01*
X141006338Y-59087534D01*
X141125748Y-59143215D01*
X141135189Y-59147618D01*
X141187628Y-59193790D01*
X141206780Y-59260984D01*
X141186564Y-59327865D01*
X141135189Y-59372382D01*
X141006340Y-59432465D01*
X141006338Y-59432466D01*
X140825377Y-59559175D01*
X140669175Y-59715377D01*
X140542466Y-59896338D01*
X140542465Y-59896340D01*
X140449107Y-60096548D01*
X140449104Y-60096554D01*
X140391930Y-60309929D01*
X140391929Y-60309937D01*
X140372677Y-60529997D01*
X140372677Y-60530002D01*
X140391929Y-60750062D01*
X140391930Y-60750070D01*
X140449104Y-60963445D01*
X140449105Y-60963447D01*
X140449106Y-60963450D01*
X140474077Y-61017000D01*
X140542465Y-61163661D01*
X140542466Y-61163662D01*
X140570975Y-61204378D01*
X140593302Y-61270582D01*
X140576292Y-61338349D01*
X140525344Y-61386163D01*
X140469400Y-61399500D01*
X137729096Y-61399500D01*
X137662057Y-61379815D01*
X137616302Y-61327011D01*
X137606358Y-61257853D01*
X137635383Y-61194297D01*
X137641415Y-61187819D01*
X138947063Y-59882171D01*
X140310109Y-58519124D01*
X140371430Y-58485641D01*
X140441122Y-58490625D01*
G37*
%TD.AperFunction*%
%TA.AperFunction,Conductor*%
G36*
X147986884Y-57530185D02*
G01*
X148032639Y-57582989D01*
X148042583Y-57652147D01*
X148039620Y-57666594D01*
X148011930Y-57769930D01*
X148011929Y-57769937D01*
X147992677Y-57989997D01*
X147992677Y-57990002D01*
X148011929Y-58210062D01*
X148011930Y-58210070D01*
X148069104Y-58423445D01*
X148069105Y-58423447D01*
X148069106Y-58423450D01*
X148114250Y-58520261D01*
X148162466Y-58623662D01*
X148162468Y-58623666D01*
X148289170Y-58804615D01*
X148289175Y-58804621D01*
X148445378Y-58960824D01*
X148445384Y-58960829D01*
X148626333Y-59087531D01*
X148626335Y-59087532D01*
X148626338Y-59087534D01*
X148745748Y-59143215D01*
X148755189Y-59147618D01*
X148807628Y-59193790D01*
X148826780Y-59260984D01*
X148806564Y-59327865D01*
X148755189Y-59372382D01*
X148626340Y-59432465D01*
X148626338Y-59432466D01*
X148445377Y-59559175D01*
X148289175Y-59715377D01*
X148162466Y-59896338D01*
X148162465Y-59896340D01*
X148069107Y-60096548D01*
X148069104Y-60096554D01*
X148011930Y-60309929D01*
X148011929Y-60309937D01*
X147992677Y-60529997D01*
X147992677Y-60530002D01*
X148011929Y-60750062D01*
X148011930Y-60750070D01*
X148069104Y-60963445D01*
X148069105Y-60963447D01*
X148069106Y-60963450D01*
X148094077Y-61017000D01*
X148162465Y-61163661D01*
X148162466Y-61163662D01*
X148190975Y-61204378D01*
X148213302Y-61270582D01*
X148196292Y-61338349D01*
X148145344Y-61386163D01*
X148089400Y-61399500D01*
X142810600Y-61399500D01*
X142743561Y-61379815D01*
X142697806Y-61327011D01*
X142687862Y-61257853D01*
X142709023Y-61204378D01*
X142737534Y-61163662D01*
X142830894Y-60963450D01*
X142888070Y-60750068D01*
X142907323Y-60530000D01*
X142888070Y-60309932D01*
X142830894Y-60096550D01*
X142737534Y-59896339D01*
X142632967Y-59747001D01*
X142610827Y-59715381D01*
X142542265Y-59646819D01*
X142454620Y-59559174D01*
X142454616Y-59559171D01*
X142454615Y-59559170D01*
X142273666Y-59432468D01*
X142273658Y-59432464D01*
X142144811Y-59372382D01*
X142092371Y-59326210D01*
X142073219Y-59259017D01*
X142093435Y-59192135D01*
X142144811Y-59147618D01*
X142151723Y-59144395D01*
X142273662Y-59087534D01*
X142454620Y-58960826D01*
X142610826Y-58804620D01*
X142737534Y-58623662D01*
X142830894Y-58423450D01*
X142888070Y-58210068D01*
X142906684Y-57997300D01*
X142907323Y-57990002D01*
X142907323Y-57989997D01*
X142895926Y-57859732D01*
X142888070Y-57769932D01*
X142860380Y-57666592D01*
X142862043Y-57596744D01*
X142901205Y-57538881D01*
X142965434Y-57511377D01*
X142980155Y-57510500D01*
X147919845Y-57510500D01*
X147986884Y-57530185D01*
G37*
%TD.AperFunction*%
%TA.AperFunction,Conductor*%
G36*
X109055579Y-50520185D02*
G01*
X109101334Y-50572989D01*
X109111278Y-50642147D01*
X109087807Y-50698811D01*
X109066204Y-50727668D01*
X109066202Y-50727671D01*
X109015908Y-50862517D01*
X109009501Y-50922116D01*
X109009500Y-50922135D01*
X109009500Y-52717870D01*
X109009501Y-52717876D01*
X109015908Y-52777483D01*
X109066202Y-52912328D01*
X109066206Y-52912335D01*
X109152452Y-53027544D01*
X109152455Y-53027547D01*
X109267664Y-53113793D01*
X109267671Y-53113797D01*
X109399081Y-53162810D01*
X109455015Y-53204681D01*
X109479432Y-53270145D01*
X109464580Y-53338418D01*
X109443430Y-53366673D01*
X109321503Y-53488600D01*
X109185965Y-53682169D01*
X109185964Y-53682171D01*
X109086098Y-53896335D01*
X109086094Y-53896344D01*
X109024938Y-54124586D01*
X109024936Y-54124596D01*
X109004341Y-54359999D01*
X109004341Y-54360000D01*
X109024936Y-54595403D01*
X109024938Y-54595413D01*
X109086094Y-54823655D01*
X109086096Y-54823659D01*
X109086097Y-54823663D01*
X109174243Y-55012692D01*
X109185965Y-55037830D01*
X109185967Y-55037834D01*
X109264157Y-55149500D01*
X109321505Y-55231401D01*
X109488599Y-55398495D01*
X109642330Y-55506139D01*
X109674594Y-55528730D01*
X109718219Y-55583307D01*
X109725413Y-55652805D01*
X109693890Y-55715160D01*
X109674595Y-55731880D01*
X109488922Y-55861890D01*
X109488920Y-55861891D01*
X109321891Y-56028920D01*
X109321886Y-56028926D01*
X109186400Y-56222420D01*
X109186399Y-56222422D01*
X109086570Y-56436507D01*
X109086567Y-56436513D01*
X109029364Y-56649999D01*
X109029364Y-56650000D01*
X109926988Y-56650000D01*
X109894075Y-56707007D01*
X109860000Y-56834174D01*
X109860000Y-56965826D01*
X109894075Y-57092993D01*
X109926988Y-57150000D01*
X109029364Y-57150000D01*
X109085260Y-57358606D01*
X109083597Y-57428456D01*
X109044435Y-57486319D01*
X108980206Y-57513823D01*
X108965485Y-57514700D01*
X105105742Y-57514700D01*
X104953013Y-57555623D01*
X104923865Y-57572453D01*
X104923864Y-57572453D01*
X104816087Y-57634677D01*
X104816082Y-57634681D01*
X104704278Y-57746486D01*
X103223530Y-59227233D01*
X103162207Y-59260718D01*
X103103756Y-59259327D01*
X102975413Y-59224938D01*
X102975403Y-59224936D01*
X102740001Y-59204341D01*
X102739999Y-59204341D01*
X102504596Y-59224936D01*
X102504586Y-59224938D01*
X102276344Y-59286094D01*
X102276335Y-59286098D01*
X102062171Y-59385964D01*
X102062169Y-59385965D01*
X101868597Y-59521505D01*
X101712181Y-59677922D01*
X101650858Y-59711407D01*
X101581166Y-59706423D01*
X101525233Y-59664551D01*
X101500816Y-59599087D01*
X101500500Y-59590241D01*
X101500500Y-53749995D01*
X103044732Y-53749995D01*
X103044732Y-53750004D01*
X103063777Y-54004154D01*
X103120301Y-54251803D01*
X103120492Y-54252637D01*
X103197769Y-54449535D01*
X103213608Y-54489890D01*
X103216172Y-54494331D01*
X103341041Y-54710612D01*
X103499950Y-54909877D01*
X103686783Y-55083232D01*
X103897366Y-55226805D01*
X103897371Y-55226807D01*
X103897372Y-55226808D01*
X103897373Y-55226809D01*
X104019328Y-55285538D01*
X104126992Y-55337387D01*
X104126993Y-55337387D01*
X104126996Y-55337389D01*
X104370542Y-55412513D01*
X104622565Y-55450500D01*
X104877435Y-55450500D01*
X105129458Y-55412513D01*
X105373004Y-55337389D01*
X105593088Y-55231402D01*
X105602626Y-55226809D01*
X105602626Y-55226808D01*
X105602634Y-55226805D01*
X105813217Y-55083232D01*
X106000050Y-54909877D01*
X106158959Y-54710612D01*
X106286393Y-54489888D01*
X106379508Y-54252637D01*
X106436222Y-54004157D01*
X106449433Y-53827861D01*
X106455268Y-53750004D01*
X106455268Y-53749995D01*
X106436222Y-53495845D01*
X106434641Y-53488920D01*
X106379508Y-53247363D01*
X106286393Y-53010112D01*
X106158959Y-52789388D01*
X106000050Y-52590123D01*
X105813217Y-52416768D01*
X105602634Y-52273195D01*
X105602630Y-52273193D01*
X105602627Y-52273191D01*
X105602626Y-52273190D01*
X105373006Y-52162612D01*
X105373008Y-52162612D01*
X105129466Y-52087489D01*
X105129462Y-52087488D01*
X105129458Y-52087487D01*
X105008231Y-52069214D01*
X104877440Y-52049500D01*
X104877435Y-52049500D01*
X104622565Y-52049500D01*
X104622559Y-52049500D01*
X104465609Y-52073157D01*
X104370542Y-52087487D01*
X104370539Y-52087488D01*
X104370533Y-52087489D01*
X104126992Y-52162612D01*
X103897373Y-52273190D01*
X103897372Y-52273191D01*
X103686782Y-52416768D01*
X103499952Y-52590121D01*
X103499950Y-52590123D01*
X103341041Y-52789388D01*
X103213608Y-53010109D01*
X103120492Y-53247362D01*
X103120490Y-53247369D01*
X103063777Y-53495845D01*
X103044732Y-53749995D01*
X101500500Y-53749995D01*
X101500500Y-52004426D01*
X101500816Y-51995580D01*
X101515130Y-51795442D01*
X101517648Y-51777931D01*
X101559356Y-51586199D01*
X101564333Y-51569248D01*
X101632911Y-51385385D01*
X101640259Y-51369298D01*
X101702815Y-51254734D01*
X101734291Y-51197089D01*
X101743845Y-51182221D01*
X101861447Y-51025124D01*
X101873019Y-51011770D01*
X102011771Y-50873018D01*
X102025133Y-50861441D01*
X102182214Y-50743851D01*
X102197077Y-50734299D01*
X102369315Y-50640249D01*
X102385381Y-50632912D01*
X102569241Y-50564336D01*
X102586200Y-50559357D01*
X102777936Y-50517647D01*
X102795437Y-50515130D01*
X102995581Y-50500816D01*
X103004427Y-50500500D01*
X103065891Y-50500500D01*
X108988540Y-50500500D01*
X109055579Y-50520185D01*
G37*
%TD.AperFunction*%
%TA.AperFunction,Conductor*%
G36*
X140784791Y-50520185D02*
G01*
X140830546Y-50572989D01*
X140840490Y-50642147D01*
X140811465Y-50705703D01*
X140805433Y-50712181D01*
X138390184Y-53127429D01*
X138328861Y-53160914D01*
X138259169Y-53155930D01*
X138203236Y-53114058D01*
X138180030Y-53059146D01*
X138175025Y-53027546D01*
X138173402Y-53017299D01*
X138119873Y-52852555D01*
X138041232Y-52698212D01*
X137939414Y-52558072D01*
X137816928Y-52435586D01*
X137676788Y-52333768D01*
X137522445Y-52255127D01*
X137357701Y-52201598D01*
X137357699Y-52201597D01*
X137357698Y-52201597D01*
X137226271Y-52180781D01*
X137186611Y-52174500D01*
X137013389Y-52174500D01*
X136973728Y-52180781D01*
X136842302Y-52201597D01*
X136677552Y-52255128D01*
X136523211Y-52333768D01*
X136383073Y-52435585D01*
X136275530Y-52543128D01*
X136214207Y-52576612D01*
X136144515Y-52571628D01*
X136088582Y-52529756D01*
X136082310Y-52520543D01*
X136072252Y-52504236D01*
X136042712Y-52456344D01*
X135918656Y-52332288D01*
X135793559Y-52255128D01*
X135769336Y-52240187D01*
X135769331Y-52240185D01*
X135767862Y-52239698D01*
X135602797Y-52185001D01*
X135602795Y-52185000D01*
X135500010Y-52174500D01*
X134699998Y-52174500D01*
X134699980Y-52174501D01*
X134597203Y-52185000D01*
X134597200Y-52185001D01*
X134430668Y-52240185D01*
X134430663Y-52240187D01*
X134281342Y-52332289D01*
X134157289Y-52456342D01*
X134065187Y-52605663D01*
X134065185Y-52605668D01*
X134048155Y-52657061D01*
X134010001Y-52772203D01*
X134010001Y-52772204D01*
X134010000Y-52772204D01*
X133999500Y-52874983D01*
X133999500Y-54225001D01*
X133999501Y-54225018D01*
X134010000Y-54327796D01*
X134010001Y-54327799D01*
X134047285Y-54440313D01*
X134065186Y-54494334D01*
X134157288Y-54643656D01*
X134281344Y-54767712D01*
X134430666Y-54859814D01*
X134597203Y-54914999D01*
X134617377Y-54917060D01*
X134682068Y-54943456D01*
X134722220Y-55000637D01*
X134725083Y-55070448D01*
X134692455Y-55128099D01*
X133542174Y-56278381D01*
X133480851Y-56311866D01*
X133454493Y-56314700D01*
X120865297Y-56314700D01*
X120798258Y-56295015D01*
X120777616Y-56278381D01*
X119555449Y-55056214D01*
X119521964Y-54994891D01*
X119526948Y-54925199D01*
X119568820Y-54869266D01*
X119604810Y-54850602D01*
X119622445Y-54844873D01*
X119776788Y-54766232D01*
X119916928Y-54664414D01*
X120039414Y-54541928D01*
X120099991Y-54458550D01*
X120155321Y-54415885D01*
X120224934Y-54409906D01*
X120286729Y-54442512D01*
X120300628Y-54458551D01*
X120360967Y-54541602D01*
X120483397Y-54664032D01*
X120623475Y-54765804D01*
X120777744Y-54844408D01*
X120942415Y-54897914D01*
X120942414Y-54897914D01*
X120949999Y-54899115D01*
X120950000Y-54899114D01*
X120950000Y-53830330D01*
X120969745Y-53850075D01*
X121055255Y-53899444D01*
X121150630Y-53925000D01*
X121249370Y-53925000D01*
X121344745Y-53899444D01*
X121430255Y-53850075D01*
X121450000Y-53830330D01*
X121450000Y-54899115D01*
X121457584Y-54897914D01*
X121622255Y-54844408D01*
X121776524Y-54765804D01*
X121916602Y-54664032D01*
X122039032Y-54541602D01*
X122140804Y-54401524D01*
X122219408Y-54247257D01*
X122272914Y-54082584D01*
X122300000Y-53911571D01*
X122300000Y-53800000D01*
X121480330Y-53800000D01*
X121500075Y-53780255D01*
X121549444Y-53694745D01*
X121575000Y-53599370D01*
X121575000Y-53500630D01*
X121549444Y-53405255D01*
X121500075Y-53319745D01*
X121480330Y-53300000D01*
X122300000Y-53300000D01*
X122300000Y-53188428D01*
X122272914Y-53017415D01*
X122226644Y-52875013D01*
X125050000Y-52875013D01*
X125050000Y-53300000D01*
X125869670Y-53300000D01*
X125849925Y-53319745D01*
X125800556Y-53405255D01*
X125775000Y-53500630D01*
X125775000Y-53599370D01*
X125800556Y-53694745D01*
X125849925Y-53780255D01*
X125869670Y-53800000D01*
X125050001Y-53800000D01*
X125050001Y-54224986D01*
X125060494Y-54327697D01*
X125115641Y-54494119D01*
X125115643Y-54494124D01*
X125207684Y-54643345D01*
X125331654Y-54767315D01*
X125480875Y-54859356D01*
X125480880Y-54859358D01*
X125647302Y-54914505D01*
X125647309Y-54914506D01*
X125750019Y-54924999D01*
X125899999Y-54924999D01*
X125900000Y-54924998D01*
X125900000Y-53830330D01*
X125919745Y-53850075D01*
X126005255Y-53899444D01*
X126100630Y-53925000D01*
X126199370Y-53925000D01*
X126294745Y-53899444D01*
X126380255Y-53850075D01*
X126400000Y-53830330D01*
X126400000Y-54924999D01*
X126549972Y-54924999D01*
X126549986Y-54924998D01*
X126652697Y-54914505D01*
X126819119Y-54859358D01*
X126819124Y-54859356D01*
X126968345Y-54767315D01*
X127092315Y-54643345D01*
X127131945Y-54579094D01*
X127183893Y-54532368D01*
X127252855Y-54521145D01*
X127316937Y-54548988D01*
X127325166Y-54556508D01*
X127433072Y-54664414D01*
X127573212Y-54766232D01*
X127727555Y-54844873D01*
X127892299Y-54898402D01*
X128063389Y-54925500D01*
X128063390Y-54925500D01*
X128236610Y-54925500D01*
X128236611Y-54925500D01*
X128407701Y-54898402D01*
X128572445Y-54844873D01*
X128726788Y-54766232D01*
X128866928Y-54664414D01*
X128989414Y-54541928D01*
X129049682Y-54458975D01*
X129105012Y-54416311D01*
X129174626Y-54410332D01*
X129236421Y-54442938D01*
X129250315Y-54458973D01*
X129310586Y-54541928D01*
X129433072Y-54664414D01*
X129573212Y-54766232D01*
X129727555Y-54844873D01*
X129892299Y-54898402D01*
X130063389Y-54925500D01*
X130063390Y-54925500D01*
X130236610Y-54925500D01*
X130236611Y-54925500D01*
X130407701Y-54898402D01*
X130572445Y-54844873D01*
X130726788Y-54766232D01*
X130866928Y-54664414D01*
X130989414Y-54541928D01*
X131091232Y-54401788D01*
X131169873Y-54247445D01*
X131223402Y-54082701D01*
X131250500Y-53911611D01*
X131250500Y-53188389D01*
X131223402Y-53017299D01*
X131169873Y-52852555D01*
X131091232Y-52698212D01*
X130989414Y-52558072D01*
X130866928Y-52435586D01*
X130726788Y-52333768D01*
X130572445Y-52255127D01*
X130407701Y-52201598D01*
X130407699Y-52201597D01*
X130407698Y-52201597D01*
X130276271Y-52180781D01*
X130236611Y-52174500D01*
X130063389Y-52174500D01*
X130023728Y-52180781D01*
X129892302Y-52201597D01*
X129727552Y-52255128D01*
X129573211Y-52333768D01*
X129493256Y-52391859D01*
X129433072Y-52435586D01*
X129433070Y-52435588D01*
X129433069Y-52435588D01*
X129310588Y-52558069D01*
X129310581Y-52558078D01*
X129250317Y-52641023D01*
X129194987Y-52683689D01*
X129125374Y-52689667D01*
X129063579Y-52657061D01*
X129049683Y-52641023D01*
X129001899Y-52575257D01*
X128989414Y-52558072D01*
X128866928Y-52435586D01*
X128726788Y-52333768D01*
X128572445Y-52255127D01*
X128407701Y-52201598D01*
X128407699Y-52201597D01*
X128407698Y-52201597D01*
X128276271Y-52180781D01*
X128236611Y-52174500D01*
X128063389Y-52174500D01*
X128023728Y-52180781D01*
X127892302Y-52201597D01*
X127727552Y-52255128D01*
X127573211Y-52333768D01*
X127433073Y-52435585D01*
X127325166Y-52543492D01*
X127263843Y-52576976D01*
X127194151Y-52571992D01*
X127138218Y-52530120D01*
X127131946Y-52520906D01*
X127092317Y-52456656D01*
X126968345Y-52332684D01*
X126819124Y-52240643D01*
X126819119Y-52240641D01*
X126652697Y-52185494D01*
X126652690Y-52185493D01*
X126549986Y-52175000D01*
X126400000Y-52175000D01*
X126400000Y-53269670D01*
X126380255Y-53249925D01*
X126294745Y-53200556D01*
X126199370Y-53175000D01*
X126100630Y-53175000D01*
X126005255Y-53200556D01*
X125919745Y-53249925D01*
X125900000Y-53269670D01*
X125900000Y-52175000D01*
X125750027Y-52175000D01*
X125750012Y-52175001D01*
X125647302Y-52185494D01*
X125480880Y-52240641D01*
X125480875Y-52240643D01*
X125331654Y-52332684D01*
X125207684Y-52456654D01*
X125115643Y-52605875D01*
X125115641Y-52605880D01*
X125060494Y-52772302D01*
X125060493Y-52772309D01*
X125050000Y-52875013D01*
X122226644Y-52875013D01*
X122219408Y-52852742D01*
X122140804Y-52698475D01*
X122039032Y-52558397D01*
X121916602Y-52435967D01*
X121776524Y-52334195D01*
X121622257Y-52255591D01*
X121457589Y-52202087D01*
X121457581Y-52202085D01*
X121450000Y-52200884D01*
X121450000Y-53269670D01*
X121430255Y-53249925D01*
X121344745Y-53200556D01*
X121249370Y-53175000D01*
X121150630Y-53175000D01*
X121055255Y-53200556D01*
X120969745Y-53249925D01*
X120950000Y-53269670D01*
X120950000Y-52200884D01*
X120949999Y-52200884D01*
X120942418Y-52202085D01*
X120942410Y-52202087D01*
X120777742Y-52255591D01*
X120623475Y-52334195D01*
X120483397Y-52435967D01*
X120360965Y-52558399D01*
X120360961Y-52558404D01*
X120300627Y-52641448D01*
X120245297Y-52684114D01*
X120175684Y-52690093D01*
X120113889Y-52657488D01*
X120099991Y-52641449D01*
X120099990Y-52641448D01*
X120039414Y-52558072D01*
X119916928Y-52435586D01*
X119776788Y-52333768D01*
X119622445Y-52255127D01*
X119457701Y-52201598D01*
X119457699Y-52201597D01*
X119457698Y-52201597D01*
X119326271Y-52180781D01*
X119286611Y-52174500D01*
X119113389Y-52174500D01*
X119073728Y-52180781D01*
X118942302Y-52201597D01*
X118777552Y-52255128D01*
X118623211Y-52333768D01*
X118483073Y-52435585D01*
X118375530Y-52543128D01*
X118314207Y-52576612D01*
X118244515Y-52571628D01*
X118188582Y-52529756D01*
X118182310Y-52520543D01*
X118172252Y-52504236D01*
X118142712Y-52456344D01*
X118018656Y-52332288D01*
X117893559Y-52255128D01*
X117869336Y-52240187D01*
X117869331Y-52240185D01*
X117867862Y-52239698D01*
X117702797Y-52185001D01*
X117702795Y-52185000D01*
X117600010Y-52174500D01*
X116799998Y-52174500D01*
X116799980Y-52174501D01*
X116697203Y-52185000D01*
X116697200Y-52185001D01*
X116530668Y-52240185D01*
X116530663Y-52240187D01*
X116381342Y-52332289D01*
X116257289Y-52456342D01*
X116165187Y-52605663D01*
X116165185Y-52605668D01*
X116148155Y-52657061D01*
X116110001Y-52772203D01*
X116110001Y-52772204D01*
X116110000Y-52772204D01*
X116099500Y-52874983D01*
X116099500Y-54143303D01*
X116079815Y-54210342D01*
X116027011Y-54256097D01*
X115957853Y-54266041D01*
X115894297Y-54237016D01*
X115887819Y-54230984D01*
X114161071Y-52504236D01*
X114127586Y-52442913D01*
X114132570Y-52373221D01*
X114136359Y-52364174D01*
X114173903Y-52283663D01*
X114235063Y-52055408D01*
X114255659Y-51820000D01*
X114235063Y-51584592D01*
X114173903Y-51356337D01*
X114074035Y-51142171D01*
X113992085Y-51025133D01*
X113938494Y-50948597D01*
X113771402Y-50781506D01*
X113771396Y-50781501D01*
X113692239Y-50726075D01*
X113648614Y-50671498D01*
X113641420Y-50602000D01*
X113672943Y-50539645D01*
X113733173Y-50504231D01*
X113763362Y-50500500D01*
X140717752Y-50500500D01*
X140784791Y-50520185D01*
G37*
%TD.AperFunction*%
%TA.AperFunction,Conductor*%
G36*
X142349202Y-52560023D02*
G01*
X142394957Y-52612827D01*
X142404901Y-52681985D01*
X142379110Y-52741650D01*
X142341043Y-52789384D01*
X142213608Y-53010109D01*
X142120492Y-53247362D01*
X142120490Y-53247369D01*
X142063777Y-53495845D01*
X142044732Y-53749995D01*
X142044732Y-53750004D01*
X142063777Y-54004154D01*
X142120301Y-54251803D01*
X142120492Y-54252637D01*
X142197769Y-54449535D01*
X142213608Y-54489890D01*
X142216172Y-54494331D01*
X142341041Y-54710612D01*
X142498603Y-54908188D01*
X142525011Y-54972874D01*
X142512256Y-55041569D01*
X142464385Y-55092463D01*
X142401656Y-55109500D01*
X140815784Y-55109500D01*
X140748745Y-55089815D01*
X140728103Y-55073181D01*
X140370138Y-54715216D01*
X140370130Y-54715210D01*
X140247075Y-54644165D01*
X140247072Y-54644164D01*
X140233206Y-54636158D01*
X140080478Y-54595234D01*
X140051584Y-54595234D01*
X139984545Y-54575549D01*
X139938790Y-54522745D01*
X139928846Y-54453587D01*
X139957871Y-54390031D01*
X139963903Y-54383553D01*
X141770799Y-52576657D01*
X141832122Y-52543172D01*
X141858480Y-52540338D01*
X142282163Y-52540338D01*
X142349202Y-52560023D01*
G37*
%TD.AperFunction*%
%TA.AperFunction,Conductor*%
G36*
X151130097Y-52560023D02*
G01*
X151175852Y-52612827D01*
X151185796Y-52681985D01*
X151156771Y-52745541D01*
X151150739Y-52752019D01*
X148829577Y-55073181D01*
X148768254Y-55106666D01*
X148741896Y-55109500D01*
X145098344Y-55109500D01*
X145031305Y-55089815D01*
X144985550Y-55037011D01*
X144975606Y-54967853D01*
X145001396Y-54908189D01*
X145158959Y-54710612D01*
X145286393Y-54489888D01*
X145379508Y-54252637D01*
X145436222Y-54004157D01*
X145449433Y-53827861D01*
X145455268Y-53750004D01*
X145455268Y-53749995D01*
X145436222Y-53495845D01*
X145434641Y-53488920D01*
X145379508Y-53247363D01*
X145286393Y-53010112D01*
X145158959Y-52789388D01*
X145145339Y-52772309D01*
X145120890Y-52741650D01*
X145094481Y-52676964D01*
X145107238Y-52608268D01*
X145155108Y-52557375D01*
X145217837Y-52540338D01*
X151063058Y-52540338D01*
X151130097Y-52560023D01*
G37*
%TD.AperFunction*%
%TD*%
M02*
